<svg width="82" height="82" viewBox="0 0 82 82" fill="none" xmlns="http://www.w3.org/2000/svg">
<path d="M34.8248 64.6255C35.329 64.6272 35.8272 64.5159 36.2828 64.2998C36.7383 64.0837 37.1397 63.7683 37.4573 63.3768L53.7586 43.1268C54.255 42.5229 54.5264 41.7654 54.5264 40.9836C54.5264 40.2019 54.255 39.4444 53.7586 38.8405L36.8836 18.5905C36.3107 17.9013 35.4875 17.4678 34.5951 17.3856C33.7026 17.3033 32.8141 17.5789 32.1248 18.1518C31.4356 18.7246 31.0022 19.5478 30.9199 20.4403C30.8376 21.3327 31.1132 22.2213 31.6861 22.9105L46.7723 41.0005L32.1923 59.0905C31.7796 59.5859 31.5175 60.1892 31.4369 60.8289C31.3563 61.4686 31.4606 62.118 31.7376 62.7003C32.0145 63.2826 32.4524 63.7734 32.9996 64.1145C33.5467 64.4557 34.1801 64.633 34.8248 64.6255Z" fill="white"/>
</svg>
