<svg width="105" height="105" viewBox="0 0 105 105" fill="none" xmlns="http://www.w3.org/2000/svg">
<g clip-path="url(#clip0_2_2874)">
<rect x="21.875" y="21.875" width="61.25" height="61.25" fill="url(#paint0_linear_2_2874)"/>
<path d="M105 52.5C105 66.4239 99.4688 79.7775 89.6231 89.6231C79.7775 99.4688 66.4239 105 52.5 105C38.5761 105 25.2226 99.4688 15.3769 89.6231C5.53124 79.7775 0 66.4239 0 52.5C0 38.5761 5.53124 25.2226 15.3769 15.3769C25.2226 5.53124 38.5761 0 52.5 0C66.4239 0 79.7775 5.53124 89.6231 15.3769C99.4688 25.2226 105 38.5761 105 52.5ZM44.5594 33.4228C44.0687 33.0735 43.4914 32.8659 42.8907 32.8229C42.2899 32.7799 41.6889 32.903 41.1535 33.1789C40.6181 33.4547 40.1689 33.8726 39.8552 34.3867C39.5415 34.9009 39.3754 35.4915 39.375 36.0937L39.375 68.9062C39.3754 69.5085 39.5415 70.0991 39.8552 70.6133C40.1689 71.1274 40.6181 71.5453 41.1535 71.8211C41.6889 72.097 42.2899 72.2201 42.8907 72.1771C43.4914 72.1341 44.0687 71.9265 44.5594 71.5772L67.5281 55.1709C67.9535 54.8674 68.3002 54.4667 68.5394 54.0021C68.7786 53.5375 68.9034 53.0225 68.9034 52.5C68.9034 51.9775 68.7786 51.4625 68.5394 50.9979C68.3002 50.5333 67.9535 50.1326 67.5281 49.8291L44.5594 33.4228Z" fill="black"/>
</g>
<defs>
<linearGradient id="paint0_linear_2_2874" x1="21.875" y1="21.875" x2="83.125" y2="83.125" gradientUnits="userSpaceOnUse">
<stop stop-color="#F9EC7D"/>
<stop offset="1" stop-color="#F5B100"/>
</linearGradient>
<clipPath id="clip0_2_2874">
<rect width="105" height="105" fill="white"/>
</clipPath>
</defs>
</svg>
