<svg width="105" height="105" viewBox="0 0 105 105" fill="none" xmlns="http://www.w3.org/2000/svg">
<g clip-path="url(#clip0_2_2864)">
<rect x="83.125" y="21.875" width="61.25" height="61.25" transform="rotate(90 83.125 21.875)" fill="url(#paint0_linear_2_2864)"/>
<path d="M52.5 105C38.5761 105 25.2225 99.4688 15.3769 89.6231C5.53123 79.7775 0 66.4239 0 52.5C0 38.5761 5.53123 25.2226 15.3769 15.3769C25.2225 5.53124 38.5761 0 52.5 0C66.4239 0 79.7774 5.53124 89.6231 15.3769C99.4688 25.2226 105 38.5761 105 52.5C105 66.4239 99.4688 79.7775 89.6231 89.6231C79.7774 99.4688 66.4239 105 52.5 105ZM71.5772 44.5594C71.9265 44.0687 72.1341 43.4914 72.1771 42.8907C72.2201 42.2899 72.097 41.6889 71.8211 41.1535C71.5453 40.6181 71.1274 40.1689 70.6133 39.8552C70.0991 39.5415 69.5085 39.3754 68.9062 39.375L36.0937 39.375C35.4915 39.3754 34.9009 39.5415 34.3867 39.8552C33.8726 40.1689 33.4547 40.6181 33.1789 41.1535C32.903 41.6889 32.7799 42.2899 32.8229 42.8907C32.8659 43.4914 33.0735 44.0687 33.4228 44.5594L49.8291 67.5281C50.1326 67.9535 50.5333 68.3002 50.9979 68.5394C51.4625 68.7786 51.9775 68.9034 52.5 68.9034C53.0225 68.9034 53.5375 68.7786 54.0021 68.5394C54.4667 68.3002 54.8674 67.9535 55.1709 67.5281L71.5772 44.5594Z" fill="black"/>
</g>
<defs>
<linearGradient id="paint0_linear_2_2864" x1="83.125" y1="21.875" x2="144.375" y2="83.125" gradientUnits="userSpaceOnUse">
<stop stop-color="#F9EC7D"/>
<stop offset="1" stop-color="#F5B100"/>
</linearGradient>
<clipPath id="clip0_2_2864">
<rect width="105" height="105" fill="white" transform="matrix(0 1 -1 0 105 0)"/>
</clipPath>
</defs>
</svg>
