<svg width="401" height="410" viewBox="0 0 401 410" fill="none" xmlns="http://www.w3.org/2000/svg">
<g opacity="0.3">
<path opacity="0.3" d="M46.2556 65.8632C37.7811 76.0155 36.132 93.9083 37.3426 101.573C37.3426 101.573 39.6876 122.544 56.5414 130.971C73.3951 139.398 94.9771 132.697 108.513 110.571C122.05 88.4461 104.815 63.3847 88.1707 57.0741C71.5267 50.7635 54.7397 55.7014 46.2556 65.8632ZM82.2986 94.7376C80.6018 100.924 75.2921 103.784 70.6116 100.705C69.3299 99.8271 68.3106 98.6177 67.6625 97.2057C67.0145 95.7938 66.762 94.2324 66.932 92.6881C67.0169 90.9801 67.74 89.3661 68.958 88.1657C70.1761 86.9653 71.8004 86.2659 73.5095 86.2059C77.1796 85.9771 83.9954 88.5605 82.2986 94.7376Z" stroke="black" stroke-width="3.79202" stroke-miterlimit="10"/>
<path opacity="0.3" d="M111.573 95.624C111.268 90.7624 113.089 85.2906 109.743 81.6396C106.883 78.5415 106.693 74.3567 105.206 70.5627C103.689 68.5177 102.002 66.6044 100.163 64.8431C98.9903 64.4904 97.6748 64.3855 96.0638 63.9756C92.4128 63.0223 92.7179 59.419 86.6456 58.5039C80.5732 57.5887 78.1329 58.5039 75.7021 58.5039C74.0027 58.4446 72.3328 58.0425 70.7927 57.3218C70.7927 57.3218 66.2361 54.2809 59.5442 58.2751C52.8523 62.2693 52.5568 66.4827 48.0001 70.1337C45.7123 71.964 43.2338 72.8029 41.3749 74.023C40.4109 76.2637 39.6174 78.574 39.0013 80.9342C40.1071 87.2734 43.9964 92.4783 42.8144 96.2818C41.6037 100.228 37.0376 101.449 38.8679 106.615C40.6981 111.782 43.4245 111.782 44.0346 116.949C44.6446 122.115 51.6607 128.502 55.2831 128.502C58.9055 128.502 59.8397 126.376 66.5316 129.722C73.2236 133.068 75.6544 132.754 79.2959 130.018C82.9373 127.282 81.1261 127.892 87.1984 126.986C93.2708 126.081 97.2363 123.946 98.752 119.99C100.268 116.033 99.9722 116.949 105.425 112.087C110.878 107.225 111.869 100.457 111.573 95.624ZM82.2987 94.7375C80.6018 100.924 75.2921 103.784 70.6116 100.705C69.3299 99.827 68.3106 98.6175 67.6626 97.2056C67.0145 95.7936 66.762 94.2322 66.932 92.688C67.0169 90.9799 67.74 89.366 68.9581 88.1656C70.1761 86.9652 71.8004 86.2658 73.5095 86.2058C77.1796 85.977 83.9955 88.5603 82.2987 94.7375Z" stroke="black" stroke-width="3.79202" stroke-miterlimit="10"/>
<path opacity="0.3" d="M99.1047 95.9292C93.0229 100.181 81.4693 117.854 84.2052 110.228C86.9411 102.602 89.6769 97.7595 83.9097 100.495C78.1424 103.231 68.7051 112.964 63.8911 113.26C59.4203 113.546 66.2361 105.357 69.7346 100.019C68.0695 98.4885 67.0703 96.3668 66.9511 94.1085C64.815 93.8191 62.644 93.9225 60.5451 94.4136C59.3631 94.7663 62.4517 93.8416 67.0369 92.2687C67.2129 90.6447 67.9696 89.1389 69.1677 88.0284C70.3657 86.9179 71.9245 86.2775 73.5572 86.225C75.5775 86.1573 77.5761 86.6594 79.3245 87.674C83.4521 85.9485 87.1698 84.1373 89.124 82.5645C95.5014 77.3882 82.4512 75.2624 75.4447 76.4826C68.4382 77.7028 82.4321 72.8316 83.6523 67.0548C84.8725 61.278 76.0262 61.5831 64.5012 68.0081C52.9762 74.4331 53.5577 71.9546 62.0608 66.1873C70.5639 60.4201 65.1017 59.5145 61.1075 61.6212C61.1075 61.6212 43.7772 76.5208 43.4721 82.8981C43.1671 89.2754 48.9439 86.8542 56.8178 79.2566C64.6918 71.6591 80.2301 64.052 77.1891 69.2187C74.1482 74.3854 56.5128 83.5177 62.8902 83.5177C69.2675 83.5177 82.0413 77.4359 84.4721 79.5712C86.9029 81.7065 52.2517 88.3794 48.0001 99.933C43.7486 111.487 67.7518 93.5556 65.626 98.7223C63.5002 103.889 45.5979 115.385 53.8055 122.382C62.0132 129.379 78.1329 102.621 80.8688 106.272C83.6046 109.923 71.441 125.118 80.2587 120.867C89.0764 116.615 104.271 94.4136 104.271 98.6747C104.271 102.936 79.6486 120.6 84.8153 123.908C89.982 127.215 108.838 102.936 109.743 96.5489C110.649 90.162 105.187 91.6681 99.1047 95.9292Z" stroke="black" stroke-width="3.79202" stroke-miterlimit="10"/>
</g>
<g opacity="0.3">
<path opacity="0.3" d="M296.011 229.825C287.537 239.977 285.888 257.87 287.098 265.534C287.098 265.534 289.443 286.506 306.297 294.933C323.151 303.36 344.733 296.658 358.269 274.533C371.805 252.408 354.57 227.346 337.926 221.036C321.282 214.725 304.495 219.663 296.011 229.825ZM332.054 258.699C330.357 264.886 325.048 267.746 320.367 264.667C319.086 263.789 318.066 262.579 317.418 261.167C316.77 259.755 316.518 258.194 316.688 256.65C316.773 254.942 317.496 253.328 318.714 252.127C319.932 250.927 321.556 250.228 323.265 250.168C326.935 249.939 333.751 252.522 332.054 258.699Z" stroke="black" stroke-width="3.79202" stroke-miterlimit="10"/>
<path opacity="0.3" d="M361.329 259.586C361.024 254.724 362.845 249.252 359.499 245.601C356.639 242.503 356.448 238.319 354.961 234.525C353.444 232.48 351.757 230.566 349.918 228.805C348.746 228.452 347.43 228.347 345.819 227.937C342.168 227.032 342.473 223.381 336.401 222.466C330.329 221.551 327.889 222.466 325.458 222.466C323.769 222.392 322.113 221.981 320.587 221.255C320.587 221.255 316.03 218.214 309.338 222.161C302.646 226.107 302.351 230.368 297.794 234.019C295.506 235.85 293.028 236.688 291.169 237.909C290.205 240.149 289.411 242.46 288.795 244.82C289.901 251.159 293.79 256.364 292.608 260.167C291.426 263.971 286.831 265.334 288.662 270.501C290.492 275.667 293.218 275.667 293.828 280.834C294.438 286.001 301.454 292.388 305.077 292.388C308.699 292.388 309.633 290.262 316.325 293.608C323.017 296.954 325.448 296.639 329.09 293.903C332.731 291.168 330.92 291.778 336.992 290.872C343.065 289.966 347.03 287.831 348.546 283.875C350.061 279.919 349.766 280.834 355.219 275.972C360.671 271.111 361.625 264.419 361.329 259.586ZM332.054 258.699C330.357 264.886 325.048 267.746 320.367 264.667C319.086 263.789 318.066 262.579 317.418 261.167C316.77 259.755 316.518 258.194 316.688 256.65C316.773 254.942 317.496 253.328 318.714 252.127C319.932 250.927 321.556 250.228 323.265 250.168C326.935 249.939 333.751 252.522 332.054 258.699Z" stroke="black" stroke-width="3.79202" stroke-miterlimit="10"/>
<path opacity="0.3" d="M348.86 259.891C342.779 264.142 331.225 281.816 333.961 274.19C336.697 266.564 339.433 261.721 333.665 264.457C327.898 267.193 318.461 276.926 313.599 277.221C309.128 277.507 315.944 269.319 319.443 263.98C317.778 262.45 316.778 260.328 316.659 258.07C314.523 257.781 312.352 257.884 310.253 258.375C309.071 258.728 312.16 257.803 316.745 256.23C316.921 254.606 317.678 253.101 318.876 251.99C320.074 250.88 321.633 250.239 323.265 250.187C325.269 250.128 327.25 250.63 328.985 251.636C333.112 249.91 336.83 248.099 338.784 246.526C345.162 241.35 332.111 239.224 325.105 240.444C318.098 241.664 332.092 236.793 333.313 231.016C334.533 225.24 325.686 225.545 314.161 231.97C302.637 238.395 303.218 235.916 311.721 230.149C320.224 224.382 314.762 223.476 310.768 225.583C310.768 225.583 293.437 240.482 293.132 246.86C292.827 253.237 298.604 250.816 306.478 243.218C314.352 235.621 329.89 228.014 326.849 233.18C323.809 238.347 306.173 247.479 312.55 247.479C318.928 247.479 331.702 241.398 334.132 243.533C336.563 245.668 301.912 252.341 297.66 263.895C293.409 275.448 317.412 257.517 315.286 262.684C313.161 267.851 295.354 279.347 303.561 286.344C311.769 293.341 327.889 266.583 330.624 270.234C333.36 273.885 321.197 289.08 330.014 284.828C338.832 280.577 354.027 258.375 354.027 262.636C354.027 266.897 329.404 284.561 334.571 287.869C339.738 291.177 358.593 266.897 359.499 260.511C360.404 254.124 354.942 255.63 348.86 259.891Z" stroke="black" stroke-width="3.79202" stroke-miterlimit="10"/>
</g>
<g opacity="0.3">
<path opacity="0.3" d="M311.311 146.214C316.793 158.263 332.207 167.491 339.633 169.722C339.633 169.722 359.527 176.69 374.446 165.155C389.365 153.621 392.653 131.257 378.574 109.466C364.494 87.6739 334.437 92.364 321.54 104.633C308.642 116.901 305.83 134.127 311.311 146.214ZM352.959 126.195C357.802 130.399 358.078 136.433 353.274 139.322C351.926 140.097 350.393 140.492 348.838 140.463C347.283 140.435 345.765 139.984 344.447 139.16C342.946 138.34 341.807 136.988 341.253 135.37C340.699 133.753 340.77 131.986 341.454 130.418C342.836 127.015 348.117 121.992 352.959 126.195Z" stroke="black" stroke-width="3.79202" stroke-miterlimit="10"/>
<path opacity="0.3" d="M322.283 106.282C320.377 112.259 319.509 113.908 316.421 116.891C313.332 119.875 311.712 124.727 312.074 127.32C312.514 130.385 312.651 133.485 312.484 136.576C312.414 138.695 312.838 140.801 313.724 142.727C314.609 144.653 315.93 146.346 317.584 147.672C320.311 149.652 322.653 152.114 324.495 154.936C327.202 158.664 326.316 159.502 330.348 161.533C334.38 163.563 342.025 167.634 342.025 167.634C342.025 167.634 350.748 171.514 354.656 169.893C358.565 168.273 363.236 162.582 366.267 161.314C369.298 160.046 370.728 163.363 374.751 157.443C378.774 151.524 379.956 147.043 382.377 144.736C384.798 142.429 385.437 134.25 382.091 130.752C378.745 127.253 377.096 124.174 376.591 118.36C376.086 112.545 374.465 109.056 368.278 106.92C362.092 104.785 357.497 99.5516 355.18 97.5593C352.864 95.5669 346.601 96.0531 342.693 98.1026C338.784 100.152 335.2 96.8443 331.072 98.6746C329.747 99.2561 328.565 99.6278 327.507 100.057C326.389 100.692 325.331 101.388 324.333 102.144C323.369 103.365 322.67 104.775 322.283 106.282V106.282ZM341.959 127.425C344.532 127.921 345.934 123.221 350.452 123.126C354.971 123.031 352.359 125.538 352.959 126.195C354.01 127.097 354.9 128.17 355.59 129.37C356.365 130.355 356.883 131.518 357.097 132.754C357.249 135.118 357.43 136.634 358.879 138.597C360.328 140.561 357.106 140.704 354.303 141.286C351.501 141.867 351.282 141.638 349.089 143.297C346.897 144.956 343.741 142.086 343.741 142.086C343.741 142.086 341.835 141.4 339.976 138.121C338.117 134.841 340.071 134.308 338.413 131.639C336.754 128.969 339.394 126.929 341.959 127.425V127.425Z" stroke="black" stroke-width="3.79202" stroke-miterlimit="10"/>
<path opacity="0.3" d="M345.39 109.504C345.392 109.946 345.263 110.378 345.018 110.746C344.774 111.115 344.426 111.402 344.018 111.572C343.61 111.742 343.161 111.787 342.727 111.701C342.293 111.616 341.895 111.403 341.583 111.09C341.27 110.778 341.057 110.38 340.972 109.946C340.886 109.512 340.931 109.063 341.101 108.655C341.271 108.247 341.558 107.899 341.926 107.654C342.295 107.41 342.727 107.281 343.169 107.282C343.758 107.282 344.323 107.516 344.74 107.933C345.156 108.35 345.39 108.915 345.39 109.504V109.504Z" stroke="black" stroke-width="3.79202" stroke-miterlimit="10"/>
<path opacity="0.3" d="M329.805 115.871C330.331 115.871 330.758 115.445 330.758 114.918C330.758 114.392 330.331 113.965 329.805 113.965C329.278 113.965 328.851 114.392 328.851 114.918C328.851 115.445 329.278 115.871 329.805 115.871Z" stroke="black" stroke-width="3.79202" stroke-miterlimit="10"/>
<path opacity="0.3" d="M336.802 103.937C336.802 104.22 336.718 104.496 336.561 104.731C336.403 104.966 336.18 105.15 335.919 105.258C335.658 105.366 335.37 105.394 335.093 105.339C334.815 105.284 334.561 105.148 334.361 104.948C334.161 104.748 334.024 104.493 333.969 104.216C333.914 103.938 333.942 103.651 334.051 103.39C334.159 103.128 334.342 102.905 334.577 102.748C334.812 102.591 335.089 102.507 335.372 102.507C335.751 102.507 336.115 102.657 336.383 102.926C336.651 103.194 336.802 103.558 336.802 103.937V103.937Z" stroke="black" stroke-width="3.79202" stroke-miterlimit="10"/>
<path opacity="0.3" d="M325.982 128.598C327.388 128.598 328.527 127.458 328.527 126.052C328.527 124.647 327.388 123.507 325.982 123.507C324.576 123.507 323.437 124.647 323.437 126.052C323.437 127.458 324.576 128.598 325.982 128.598Z" stroke="black" stroke-width="3.79202" stroke-miterlimit="10"/>
<path opacity="0.3" d="M358.126 117.94C358.126 118.287 358.023 118.626 357.831 118.915C357.638 119.203 357.364 119.428 357.043 119.561C356.723 119.693 356.37 119.728 356.03 119.66C355.69 119.593 355.377 119.426 355.132 119.18C354.887 118.935 354.719 118.623 354.652 118.282C354.584 117.942 354.619 117.589 354.752 117.269C354.884 116.948 355.109 116.674 355.398 116.482C355.686 116.289 356.025 116.186 356.372 116.186C356.837 116.186 357.283 116.371 357.612 116.7C357.941 117.029 358.126 117.475 358.126 117.94V117.94Z" stroke="black" stroke-width="3.79202" stroke-miterlimit="10"/>
<path opacity="0.3" d="M359.079 107.435C359.081 107.721 358.998 108 358.841 108.238C358.683 108.477 358.459 108.663 358.195 108.773C357.932 108.883 357.642 108.912 357.361 108.857C357.081 108.802 356.824 108.664 356.622 108.462C356.42 108.261 356.283 108.003 356.228 107.723C356.172 107.443 356.202 107.153 356.312 106.889C356.422 106.626 356.608 106.401 356.846 106.244C357.084 106.086 357.364 106.003 357.649 106.005C358.028 106.008 358.39 106.159 358.658 106.427C358.925 106.694 359.077 107.057 359.079 107.435Z" stroke="black" stroke-width="3.79202" stroke-miterlimit="10"/>
<path opacity="0.3" d="M370.852 119.523C370.852 119.932 370.731 120.332 370.504 120.672C370.276 121.012 369.953 121.277 369.575 121.434C369.197 121.59 368.781 121.631 368.38 121.551C367.979 121.472 367.61 121.275 367.321 120.985C367.032 120.696 366.835 120.327 366.755 119.926C366.675 119.525 366.716 119.109 366.872 118.731C367.029 118.353 367.294 118.03 367.634 117.803C367.975 117.575 368.374 117.454 368.784 117.454C369.332 117.454 369.858 117.672 370.246 118.06C370.634 118.448 370.852 118.974 370.852 119.523Z" stroke="black" stroke-width="3.79202" stroke-miterlimit="10"/>
<path opacity="0.3" d="M373.397 137.034C373.397 137.381 373.295 137.72 373.102 138.008C372.909 138.297 372.635 138.522 372.315 138.654C371.994 138.787 371.641 138.822 371.301 138.754C370.961 138.687 370.648 138.52 370.403 138.274C370.158 138.029 369.991 137.716 369.923 137.376C369.855 137.036 369.89 136.683 370.023 136.363C370.156 136.042 370.38 135.768 370.669 135.576C370.957 135.383 371.296 135.28 371.643 135.28C371.874 135.279 372.103 135.323 372.316 135.411C372.529 135.499 372.723 135.628 372.886 135.791C373.05 135.954 373.179 136.148 373.266 136.361C373.354 136.575 373.399 136.803 373.397 137.034V137.034Z" stroke="black" stroke-width="3.79202" stroke-miterlimit="10"/>
<path opacity="0.3" d="M362.578 155.013C362.578 155.39 362.466 155.758 362.257 156.072C362.047 156.385 361.749 156.63 361.401 156.774C361.053 156.918 360.669 156.956 360.299 156.883C359.93 156.809 359.59 156.627 359.323 156.361C359.057 156.094 358.875 155.755 358.801 155.385C358.728 155.015 358.766 154.632 358.91 154.283C359.054 153.935 359.299 153.637 359.612 153.428C359.926 153.218 360.294 153.106 360.671 153.106C361.177 153.106 361.662 153.307 362.019 153.665C362.377 154.022 362.578 154.507 362.578 155.013Z" stroke="black" stroke-width="3.79202" stroke-miterlimit="10"/>
<path opacity="0.3" d="M343.169 157.872C343.169 158.438 343.002 158.991 342.687 159.461C342.373 159.931 341.927 160.298 341.404 160.514C340.881 160.731 340.306 160.788 339.752 160.677C339.197 160.567 338.687 160.295 338.287 159.895C337.887 159.495 337.615 158.985 337.505 158.43C337.394 157.876 337.451 157.301 337.667 156.778C337.884 156.255 338.25 155.809 338.721 155.495C339.191 155.18 339.744 155.013 340.31 155.013C341.068 155.013 341.795 155.314 342.332 155.85C342.868 156.387 343.169 157.114 343.169 157.872V157.872Z" stroke="black" stroke-width="3.79202" stroke-miterlimit="10"/>
<path opacity="0.3" d="M331.034 140.495C331.034 140.777 330.95 141.054 330.793 141.289C330.636 141.524 330.413 141.707 330.152 141.816C329.89 141.924 329.603 141.952 329.325 141.897C329.048 141.842 328.793 141.706 328.593 141.506C328.393 141.306 328.257 141.051 328.202 140.773C328.147 140.496 328.175 140.209 328.283 139.947C328.392 139.686 328.575 139.463 328.81 139.306C329.045 139.148 329.322 139.065 329.604 139.065C329.984 139.065 330.347 139.215 330.616 139.483C330.884 139.752 331.034 140.115 331.034 140.495V140.495Z" stroke="black" stroke-width="3.79202" stroke-miterlimit="10"/>
<path opacity="0.3" d="M345.076 147.691C345.076 147.945 345.001 148.192 344.86 148.402C344.719 148.612 344.519 148.776 344.285 148.872C344.051 148.969 343.794 148.994 343.546 148.944C343.298 148.893 343.07 148.771 342.892 148.591C342.714 148.412 342.593 148.183 342.545 147.935C342.496 147.686 342.523 147.429 342.621 147.196C342.719 146.963 342.885 146.764 343.096 146.625C343.307 146.486 343.555 146.412 343.808 146.414C343.975 146.414 344.141 146.447 344.295 146.512C344.45 146.576 344.59 146.67 344.708 146.789C344.826 146.908 344.919 147.048 344.982 147.203C345.045 147.358 345.077 147.524 345.076 147.691Z" stroke="black" stroke-width="3.79202" stroke-miterlimit="10"/>
<path opacity="0.3" d="M319.938 133.821C319.938 134.042 319.873 134.258 319.75 134.441C319.628 134.625 319.454 134.767 319.25 134.852C319.046 134.936 318.822 134.958 318.605 134.915C318.389 134.872 318.19 134.766 318.034 134.61C317.878 134.454 317.772 134.255 317.729 134.039C317.686 133.823 317.708 133.598 317.793 133.395C317.877 133.191 318.02 133.017 318.203 132.894C318.387 132.772 318.602 132.706 318.823 132.706C318.969 132.706 319.114 132.735 319.25 132.791C319.385 132.847 319.508 132.929 319.612 133.033C319.715 133.136 319.797 133.259 319.853 133.395C319.909 133.53 319.938 133.675 319.938 133.821V133.821Z" stroke="black" stroke-width="3.79202" stroke-miterlimit="10"/>
<path opacity="0.3" d="M328.851 105.052C328.851 105.24 328.795 105.425 328.691 105.582C328.586 105.738 328.437 105.861 328.263 105.933C328.089 106.005 327.897 106.024 327.712 105.987C327.527 105.95 327.357 105.859 327.224 105.726C327.091 105.593 327 105.423 326.963 105.238C326.926 105.053 326.945 104.861 327.017 104.687C327.089 104.513 327.212 104.364 327.368 104.259C327.525 104.155 327.709 104.099 327.898 104.099C328.151 104.099 328.393 104.199 328.572 104.378C328.751 104.557 328.851 104.799 328.851 105.052Z" stroke="black" stroke-width="3.79202" stroke-miterlimit="10"/>
<path opacity="0.3" d="M340.624 117.94C340.622 118.151 340.536 118.352 340.386 118.5C340.236 118.648 340.034 118.731 339.823 118.731C339.614 118.731 339.412 118.648 339.264 118.5C339.116 118.351 339.032 118.15 339.032 117.94C339.032 117.729 339.115 117.527 339.263 117.377C339.411 117.227 339.613 117.142 339.823 117.139C340.035 117.142 340.237 117.227 340.387 117.377C340.536 117.526 340.622 117.729 340.624 117.94V117.94Z" stroke="black" stroke-width="3.79202" stroke-miterlimit="10"/>
<path opacity="0.3" d="M363.846 129.055C363.846 129.276 363.78 129.492 363.657 129.676C363.534 129.859 363.359 130.002 363.155 130.086C362.951 130.171 362.726 130.192 362.509 130.148C362.293 130.105 362.094 129.997 361.938 129.84C361.783 129.683 361.677 129.484 361.635 129.267C361.593 129.05 361.617 128.825 361.703 128.622C361.789 128.418 361.933 128.245 362.118 128.123C362.302 128.002 362.519 127.938 362.74 127.94C362.886 127.94 363.03 127.969 363.165 128.025C363.3 128.081 363.422 128.163 363.525 128.267C363.628 128.371 363.709 128.494 363.764 128.629C363.819 128.764 363.847 128.909 363.846 129.055Z" stroke="black" stroke-width="3.79202" stroke-miterlimit="10"/>
<path opacity="0.3" d="M374.351 147.053C374.351 147.43 374.239 147.798 374.029 148.112C373.82 148.426 373.522 148.67 373.174 148.814C372.825 148.958 372.442 148.996 372.072 148.923C371.702 148.849 371.363 148.668 371.096 148.401C370.829 148.134 370.648 147.795 370.574 147.425C370.501 147.055 370.538 146.672 370.683 146.323C370.827 145.975 371.071 145.677 371.385 145.468C371.698 145.258 372.067 145.146 372.444 145.146C372.95 145.146 373.435 145.347 373.792 145.705C374.15 146.062 374.351 146.547 374.351 147.053Z" stroke="black" stroke-width="3.79202" stroke-miterlimit="10"/>
<path opacity="0.3" d="M334.733 133.059C335.702 133.059 336.487 132.274 336.487 131.305C336.487 130.336 335.702 129.551 334.733 129.551C333.764 129.551 332.979 130.336 332.979 131.305C332.979 132.274 333.764 133.059 334.733 133.059Z" stroke="black" stroke-width="3.79202" stroke-miterlimit="10"/>
<path opacity="0.3" d="M328.527 147.053C328.529 147.306 328.456 147.555 328.316 147.766C328.176 147.978 327.977 148.143 327.743 148.241C327.509 148.339 327.252 148.365 327.003 148.316C326.754 148.267 326.526 148.145 326.347 147.966C326.167 147.786 326.046 147.558 325.997 147.309C325.948 147.061 325.974 146.803 326.072 146.569C326.169 146.335 326.335 146.136 326.546 145.996C326.758 145.857 327.006 145.783 327.259 145.785C327.596 145.785 327.918 145.919 328.156 146.156C328.394 146.394 328.527 146.717 328.527 147.053V147.053Z" stroke="black" stroke-width="3.79202" stroke-miterlimit="10"/>
<path opacity="0.3" d="M321.502 123.193C321.502 123.507 321.408 123.815 321.233 124.077C321.058 124.339 320.81 124.543 320.519 124.663C320.228 124.784 319.908 124.815 319.599 124.754C319.29 124.693 319.007 124.541 318.784 124.318C318.561 124.096 318.41 123.812 318.348 123.503C318.287 123.194 318.318 122.874 318.439 122.583C318.559 122.293 318.763 122.044 319.025 121.869C319.287 121.694 319.595 121.601 319.91 121.601C320.332 121.601 320.737 121.768 321.035 122.067C321.334 122.365 321.502 122.77 321.502 123.193V123.193Z" stroke="black" stroke-width="3.79202" stroke-miterlimit="10"/>
<path opacity="0.3" d="M350.166 102.821C350.166 103.01 350.11 103.194 350.006 103.351C349.901 103.508 349.752 103.63 349.578 103.702C349.404 103.774 349.212 103.793 349.027 103.756C348.842 103.72 348.672 103.629 348.539 103.495C348.406 103.362 348.315 103.192 348.278 103.007C348.241 102.822 348.26 102.631 348.332 102.457C348.404 102.282 348.527 102.134 348.683 102.029C348.84 101.924 349.025 101.868 349.213 101.868C349.466 101.868 349.708 101.969 349.887 102.147C350.066 102.326 350.166 102.569 350.166 102.821Z" stroke="black" stroke-width="3.79202" stroke-miterlimit="10"/>
</g>
<g opacity="0.3">
<path opacity="0.3" d="M64.9111 301.749C59.1915 313.674 61.9559 331.424 64.9968 338.554C64.9968 338.554 72.3942 358.297 90.8018 362.386C109.209 366.476 128.494 354.655 136.206 329.889C143.918 305.123 121.077 285.086 103.404 282.998C85.7304 280.91 70.6497 289.833 64.9111 301.749ZM106.921 320.948C106.788 327.354 102.336 331.434 97.0456 329.594C95.5868 329.055 94.3018 328.13 93.328 326.918C92.3541 325.706 91.7281 324.252 91.5167 322.711C91.1849 321.038 91.4897 319.302 92.3713 317.842C93.253 316.382 94.648 315.303 96.283 314.818C99.8101 313.693 107.017 314.532 106.921 320.948Z" stroke="black" stroke-width="3.79202" stroke-miterlimit="10"/>
<path opacity="0.3" d="M102.565 284.638C96.7787 287.021 94.9389 287.421 90.6683 286.926C86.3977 286.43 81.6313 288.327 79.8773 290.262C77.804 292.561 75.5117 294.652 73.0329 296.506C71.36 297.807 70.014 299.481 69.1021 301.394C68.1902 303.307 67.7376 305.407 67.7804 307.526C68.0045 310.892 67.6104 314.272 66.6174 317.497C65.4926 321.958 64.2819 321.815 65.3019 326.219C66.3219 330.623 68.095 339.088 68.095 339.088C68.095 339.088 70.7069 348.268 74.4532 350.232C78.1996 352.196 85.5588 352.138 88.4377 353.692C91.3165 355.246 89.7246 358.459 96.8455 357.725C103.966 356.991 108.17 355.055 111.488 355.446C114.805 355.837 121.487 351.09 122.04 346.266C122.593 341.443 123.947 338.211 128.046 334.103C132.145 329.994 133.823 326.477 131.468 320.423C129.114 314.37 130.219 307.43 130.267 304.37C130.315 301.31 125.939 296.83 121.85 295.133C117.76 293.436 118.037 288.565 113.966 286.554C112.67 285.915 111.631 285.248 110.62 284.704C109.429 284.276 108.217 283.91 106.988 283.608C105.459 283.644 103.953 283.994 102.565 284.638V284.638ZM98.9331 313.283C100.201 315.571 104.71 313.646 107.684 317.096C110.658 320.547 107.026 320.08 106.921 320.986C106.906 322.37 106.652 323.74 106.168 325.037C105.899 326.238 105.339 327.354 104.538 328.288C102.822 329.927 101.774 331.033 101.192 333.407C100.611 335.78 98.4374 333.407 96.1972 331.605C93.9571 329.803 93.9952 329.518 91.307 328.898C88.6188 328.278 88.8094 324.017 88.8094 324.017C88.8094 324.017 88.1136 322.111 89.4481 318.584C90.7827 315.056 92.4795 316.181 93.4328 313.226C94.386 310.271 97.6748 310.996 98.9331 313.283Z" stroke="black" stroke-width="3.79202" stroke-miterlimit="10"/>
<path opacity="0.3" d="M114.891 304.456C114.552 304.739 114.137 304.916 113.698 304.963C113.259 305.01 112.816 304.925 112.425 304.72C112.034 304.515 111.712 304.199 111.501 303.811C111.29 303.423 111.199 302.982 111.239 302.542C111.279 302.102 111.449 301.685 111.726 301.341C112.004 300.998 112.378 300.745 112.799 300.614C113.221 300.483 113.672 300.481 114.095 300.606C114.518 300.732 114.895 300.98 115.177 301.32C115.365 301.544 115.506 301.804 115.594 302.083C115.681 302.362 115.712 302.656 115.686 302.948C115.659 303.239 115.575 303.522 115.439 303.781C115.302 304.04 115.116 304.27 114.891 304.456V304.456Z" stroke="black" stroke-width="3.79202" stroke-miterlimit="10"/>
<path opacity="0.3" d="M101.364 296.668C101.268 296.749 101.158 296.81 101.038 296.848C100.919 296.886 100.793 296.9 100.668 296.889C100.543 296.879 100.422 296.844 100.311 296.786C100.199 296.728 100.101 296.649 100.02 296.554C99.8568 296.359 99.7777 296.107 99.8001 295.854C99.8224 295.601 99.9444 295.368 100.139 295.205C100.334 295.042 100.585 294.963 100.838 294.985C101.091 295.007 101.325 295.129 101.488 295.324C101.568 295.42 101.629 295.531 101.666 295.651C101.703 295.771 101.716 295.897 101.705 296.022C101.693 296.146 101.657 296.268 101.599 296.379C101.54 296.49 101.461 296.588 101.364 296.668Z" stroke="black" stroke-width="3.79202" stroke-miterlimit="10"/>
<path opacity="0.3" d="M113.69 294.285C113.471 294.468 113.204 294.583 112.92 294.614C112.637 294.645 112.351 294.591 112.098 294.46C111.845 294.328 111.637 294.124 111.5 293.874C111.363 293.624 111.304 293.339 111.329 293.055C111.355 292.771 111.464 292.501 111.643 292.279C111.822 292.057 112.063 291.893 112.335 291.809C112.608 291.724 112.899 291.722 113.172 291.803C113.446 291.884 113.689 292.045 113.871 292.264C114.114 292.556 114.231 292.933 114.197 293.312C114.163 293.69 113.981 294.04 113.69 294.285Z" stroke="black" stroke-width="3.79202" stroke-miterlimit="10"/>
<path opacity="0.3" d="M91.3832 302.092C90.9967 302.415 90.5232 302.615 90.0226 302.669C89.522 302.722 89.0168 302.626 88.5709 302.392C88.1251 302.158 87.7585 301.798 87.5176 301.356C87.2767 300.914 87.1724 300.41 87.2177 299.909C87.263 299.407 87.456 298.931 87.7723 298.539C88.0886 298.147 88.5139 297.858 88.9945 297.708C89.4751 297.558 89.9893 297.554 90.4722 297.696C90.9551 297.839 91.3849 298.121 91.7074 298.508C92.1396 299.026 92.3482 299.695 92.2874 300.367C92.2267 301.039 91.9014 301.66 91.3832 302.092V302.092Z" stroke="black" stroke-width="3.79202" stroke-miterlimit="10"/>
<path opacity="0.3" d="M116.549 319.623C116.283 319.844 115.956 319.982 115.611 320.018C115.266 320.054 114.918 319.987 114.611 319.825C114.304 319.664 114.052 319.415 113.886 319.11C113.721 318.805 113.65 318.457 113.682 318.112C113.714 317.766 113.848 317.438 114.066 317.169C114.285 316.899 114.578 316.701 114.91 316.598C115.241 316.495 115.596 316.494 115.928 316.592C116.261 316.691 116.557 316.887 116.778 317.154C117.075 317.512 117.218 317.973 117.175 318.436C117.132 318.898 116.907 319.325 116.549 319.623V319.623Z" stroke="black" stroke-width="3.79202" stroke-miterlimit="10"/>
<path opacity="0.3" d="M125.243 313.627C125.026 313.808 124.76 313.921 124.479 313.952C124.198 313.982 123.914 313.928 123.663 313.797C123.412 313.666 123.206 313.463 123.07 313.215C122.935 312.967 122.876 312.684 122.901 312.402C122.927 312.12 123.035 311.852 123.213 311.632C123.391 311.412 123.63 311.249 123.9 311.165C124.17 311.081 124.459 311.079 124.73 311.159C125.002 311.239 125.243 311.398 125.424 311.615C125.546 311.759 125.637 311.925 125.694 312.104C125.75 312.283 125.77 312.472 125.754 312.659C125.737 312.846 125.683 313.028 125.595 313.194C125.508 313.36 125.388 313.507 125.243 313.627V313.627Z" stroke="black" stroke-width="3.79202" stroke-miterlimit="10"/>
<path opacity="0.3" d="M123.499 330.414C123.184 330.676 122.799 330.839 122.392 330.883C121.985 330.926 121.574 330.848 121.212 330.658C120.849 330.467 120.551 330.174 120.355 329.814C120.16 329.454 120.075 329.045 120.113 328.637C120.15 328.229 120.308 327.842 120.566 327.524C120.824 327.205 121.17 326.971 121.561 326.85C121.952 326.729 122.371 326.727 122.763 326.843C123.155 326.96 123.504 327.191 123.766 327.506C123.94 327.714 124.071 327.955 124.152 328.214C124.233 328.473 124.261 328.745 124.237 329.015C124.212 329.286 124.134 329.548 124.007 329.788C123.881 330.028 123.708 330.241 123.499 330.414V330.414Z" stroke="black" stroke-width="3.79202" stroke-miterlimit="10"/>
<path opacity="0.3" d="M111.688 343.54C111.421 343.763 111.095 343.902 110.749 343.939C110.403 343.976 110.055 343.91 109.747 343.748C109.439 343.587 109.186 343.337 109.021 343.032C108.855 342.726 108.783 342.379 108.816 342.033C108.848 341.687 108.982 341.358 109.201 341.088C109.421 340.819 109.715 340.62 110.047 340.518C110.38 340.416 110.735 340.415 111.067 340.515C111.4 340.616 111.696 340.812 111.917 341.081C112.063 341.257 112.174 341.461 112.242 341.68C112.31 341.899 112.334 342.129 112.312 342.358C112.291 342.586 112.225 342.808 112.118 343.011C112.011 343.214 111.865 343.394 111.688 343.54V343.54Z" stroke="black" stroke-width="3.79202" stroke-miterlimit="10"/>
<path opacity="0.3" d="M90.9543 346.781C90.6641 347.022 90.3092 347.171 89.9344 347.21C89.5595 347.249 89.1815 347.176 88.8482 347C88.5148 346.824 88.241 346.553 88.0614 346.222C87.8818 345.891 87.8044 345.514 87.839 345.138C87.8736 344.763 88.0186 344.407 88.2558 344.114C88.493 343.821 88.8116 343.605 89.1715 343.493C89.5314 343.381 89.9164 343.378 90.2778 343.485C90.6392 343.592 90.9609 343.803 91.2021 344.093C91.3627 344.286 91.4836 344.508 91.558 344.748C91.6325 344.987 91.6589 345.239 91.6359 345.489C91.6129 345.738 91.5408 345.981 91.4239 346.203C91.3069 346.425 91.1473 346.621 90.9543 346.781V346.781Z" stroke="black" stroke-width="3.79202" stroke-miterlimit="10"/>
<path opacity="0.3" d="M76.3217 333.712C75.8865 334.073 75.3541 334.296 74.7918 334.355C74.2295 334.413 73.6626 334.304 73.1625 334.04C72.6625 333.776 72.2518 333.37 71.9824 332.873C71.7129 332.376 71.5968 331.811 71.6487 331.248C71.7006 330.685 71.9182 330.15 72.274 329.711C72.6297 329.271 73.1077 328.947 73.6475 328.779C74.1874 328.612 74.7648 328.608 75.3069 328.768C75.8491 328.928 76.3316 329.245 76.6935 329.68C76.9343 329.969 77.1157 330.302 77.2273 330.661C77.339 331.021 77.3787 331.398 77.3442 331.773C77.3096 332.147 77.2015 332.512 77.0261 332.844C76.8506 333.177 76.6113 333.472 76.3217 333.712V333.712Z" stroke="black" stroke-width="3.79202" stroke-miterlimit="10"/>
<path opacity="0.3" d="M81.8982 313.322C81.6809 313.502 81.4151 313.614 81.1342 313.643C80.8534 313.673 80.5701 313.618 80.3201 313.487C80.0701 313.356 79.8646 313.153 79.7295 312.905C79.5944 312.657 79.5358 312.375 79.561 312.094C79.5862 311.812 79.6941 311.545 79.8711 311.325C80.0482 311.105 80.2864 310.942 80.5558 310.857C80.8251 310.773 81.1136 310.769 81.3847 310.848C81.6559 310.927 81.8976 311.085 82.0794 311.301C82.3197 311.594 82.4354 311.97 82.4016 312.348C82.3677 312.726 82.187 313.076 81.8982 313.322V313.322Z" stroke="black" stroke-width="3.79202" stroke-miterlimit="10"/>
<path opacity="0.3" d="M85.3681 328.66C85.1753 328.819 84.9395 328.918 84.6905 328.944C84.4415 328.97 84.1904 328.922 83.9688 328.805C83.7473 328.688 83.5653 328.509 83.4457 328.289C83.3261 328.069 83.2743 327.818 83.2969 327.569C83.3194 327.32 83.4153 327.082 83.5724 326.888C83.7295 326.693 83.9408 326.549 84.1796 326.474C84.4185 326.399 84.6742 326.396 84.9146 326.466C85.1549 326.536 85.3691 326.676 85.5302 326.868C85.7451 327.127 85.8487 327.461 85.8183 327.797C85.788 328.133 85.6261 328.443 85.3681 328.66Z" stroke="black" stroke-width="3.79202" stroke-miterlimit="10"/>
<path opacity="0.3" d="M79.8964 300.491C79.7269 300.632 79.5194 300.719 79.3001 300.742C79.0808 300.765 78.8597 300.723 78.6645 300.62C78.4694 300.518 78.309 300.359 78.2037 300.166C78.0984 299.972 78.0528 299.751 78.0728 299.532C78.0927 299.312 78.1773 299.104 78.3159 298.932C78.4544 298.761 78.6406 298.634 78.8511 298.568C79.0615 298.503 79.2867 298.501 79.4982 298.563C79.7097 298.625 79.898 298.749 80.0394 298.918C80.1335 299.03 80.2044 299.16 80.2481 299.3C80.2919 299.44 80.3076 299.588 80.2943 299.734C80.281 299.88 80.239 300.022 80.1707 300.152C80.1025 300.282 80.0092 300.397 79.8964 300.491Z" stroke="black" stroke-width="3.79202" stroke-miterlimit="10"/>
<path opacity="0.3" d="M107.722 288.889C107.626 288.97 107.515 289.03 107.395 289.067C107.275 289.105 107.149 289.118 107.024 289.106C106.9 289.095 106.778 289.059 106.667 289C106.556 288.942 106.458 288.862 106.378 288.765C106.258 288.62 106.183 288.443 106.164 288.256C106.144 288.068 106.181 287.879 106.269 287.712C106.357 287.546 106.492 287.409 106.658 287.319C106.823 287.229 107.012 287.191 107.2 287.208C107.387 287.225 107.565 287.298 107.712 287.416C107.858 287.535 107.966 287.694 108.022 287.874C108.078 288.054 108.08 288.247 108.026 288.427C107.973 288.608 107.867 288.769 107.722 288.889Z" stroke="black" stroke-width="3.79202" stroke-miterlimit="10"/>
<path opacity="0.3" d="M105.358 306.182C105.238 306.281 105.09 306.343 104.935 306.359C104.779 306.375 104.622 306.344 104.484 306.271C104.346 306.198 104.232 306.085 104.158 305.948C104.084 305.81 104.052 305.653 104.066 305.498C104.081 305.342 104.142 305.194 104.24 305.073C104.339 304.951 104.471 304.862 104.621 304.816C104.77 304.77 104.93 304.769 105.08 304.813C105.23 304.858 105.363 304.946 105.463 305.066C105.531 305.146 105.582 305.238 105.613 305.338C105.645 305.437 105.656 305.542 105.646 305.646C105.636 305.75 105.606 305.851 105.556 305.943C105.507 306.035 105.439 306.116 105.358 306.182Z" stroke="black" stroke-width="3.79202" stroke-miterlimit="10"/>
<path opacity="0.3" d="M111.688 331.148C111.518 331.289 111.311 331.376 111.091 331.399C110.872 331.422 110.651 331.38 110.456 331.277C110.261 331.174 110.1 331.016 109.995 330.823C109.89 330.629 109.844 330.408 109.864 330.189C109.884 329.969 109.969 329.761 110.107 329.589C110.246 329.418 110.432 329.291 110.642 329.225C110.853 329.16 111.078 329.158 111.29 329.22C111.501 329.282 111.689 329.406 111.831 329.575C112.018 329.803 112.109 330.096 112.082 330.391C112.055 330.685 111.913 330.957 111.688 331.148V331.148Z" stroke="black" stroke-width="3.79202" stroke-miterlimit="10"/>
<path opacity="0.3" d="M104.605 350.728C104.316 350.969 103.961 351.12 103.587 351.16C103.212 351.201 102.834 351.129 102.5 350.954C102.165 350.78 101.891 350.51 101.71 350.179C101.529 349.849 101.45 349.472 101.484 349.096C101.517 348.721 101.661 348.364 101.897 348.07C102.133 347.776 102.451 347.559 102.811 347.446C103.17 347.333 103.555 347.329 103.917 347.435C104.279 347.54 104.601 347.751 104.843 348.04C105.004 348.232 105.126 348.454 105.201 348.693C105.276 348.932 105.304 349.183 105.282 349.433C105.26 349.683 105.188 349.926 105.072 350.148C104.956 350.37 104.797 350.567 104.605 350.728Z" stroke="black" stroke-width="3.79202" stroke-miterlimit="10"/>
<path opacity="0.3" d="M92.4509 311.568C92.185 311.791 91.8589 311.93 91.5139 311.967C91.1689 312.005 90.8205 311.939 90.5128 311.778C90.2052 311.618 89.9521 311.37 89.7855 311.065C89.6189 310.761 89.5464 310.414 89.5771 310.068C89.6078 309.723 89.7403 309.394 89.9579 309.123C90.1755 308.853 90.4684 308.653 90.7996 308.55C91.1307 308.446 91.4852 308.443 91.8182 308.54C92.1511 308.638 92.4476 308.832 92.6702 309.099C92.9682 309.455 93.1124 309.916 93.0713 310.379C93.0302 310.841 92.8071 311.269 92.4509 311.568V311.568Z" stroke="black" stroke-width="3.79202" stroke-miterlimit="10"/>
<path opacity="0.3" d="M75.254 315.543C75.0612 315.702 74.8254 315.801 74.5763 315.827C74.3273 315.853 74.0762 315.805 73.8547 315.688C73.6331 315.571 73.4511 315.392 73.3315 315.172C73.2119 314.952 73.1602 314.701 73.1827 314.452C73.2053 314.203 73.3011 313.966 73.4582 313.771C73.6153 313.576 73.8266 313.432 74.0655 313.357C74.3044 313.282 74.5601 313.279 74.8004 313.349C75.0408 313.419 75.255 313.559 75.4161 313.751C75.5237 313.879 75.6049 314.027 75.655 314.186C75.7051 314.346 75.7232 314.514 75.7081 314.68C75.693 314.847 75.6451 315.009 75.5672 315.157C75.4893 315.305 75.3828 315.436 75.254 315.543V315.543Z" stroke="black" stroke-width="3.79202" stroke-miterlimit="10"/>
<path opacity="0.3" d="M89.105 294.924C88.8635 295.126 88.5674 295.252 88.2543 295.286C87.9411 295.32 87.6249 295.26 87.3457 295.114C87.0665 294.968 86.8368 294.743 86.6858 294.467C86.5347 294.19 86.469 293.875 86.4971 293.561C86.5251 293.248 86.6456 292.949 86.8433 292.704C87.0409 292.459 87.3069 292.278 87.6076 292.184C87.9082 292.09 88.23 292.087 88.5322 292.176C88.8343 292.265 89.1033 292.441 89.3051 292.683C89.5752 293.007 89.7059 293.425 89.6683 293.845C89.6308 294.265 89.4282 294.653 89.105 294.924V294.924Z" stroke="black" stroke-width="3.79202" stroke-miterlimit="10"/>
<path opacity="0.3" d="M123.079 303.837C122.983 303.917 122.872 303.977 122.752 304.014C122.632 304.051 122.506 304.064 122.382 304.053C122.257 304.041 122.135 304.005 122.025 303.947C121.914 303.889 121.815 303.809 121.735 303.713C121.655 303.616 121.595 303.505 121.558 303.385C121.521 303.266 121.507 303.14 121.519 303.015C121.53 302.89 121.566 302.769 121.625 302.658C121.683 302.547 121.763 302.449 121.859 302.369C122.054 302.207 122.305 302.129 122.557 302.152C122.809 302.175 123.041 302.298 123.203 302.492C123.365 302.687 123.443 302.938 123.42 303.19C123.396 303.442 123.274 303.675 123.079 303.837V303.837Z" stroke="black" stroke-width="3.79202" stroke-miterlimit="10"/>
</g>
<g opacity="0.3">
<path opacity="0.3" d="M63.9101 179.807C51.4128 175.479 34.092 180.284 27.3619 184.135C27.3619 184.135 8.60164 193.753 6.68558 212.504C4.76951 231.255 18.7063 249.062 44.1966 253.866C69.6869 258.671 86.9982 233.667 86.9982 215.879C86.9982 198.091 76.417 184.135 63.9101 179.807ZM49.6874 223.753C43.3005 224.353 38.7439 220.407 39.9641 214.935C40.3296 213.423 41.0992 212.039 42.1906 210.931C43.282 209.823 44.6542 209.032 46.1603 208.643C47.7881 208.121 49.5524 208.228 51.1053 208.943C52.6582 209.658 53.8869 210.928 54.5491 212.504C56.0743 215.85 56.0743 223.143 49.6874 223.753V223.753Z" stroke="black" stroke-width="3.79202" stroke-miterlimit="10"/>
<path opacity="0.3" d="M85.2538 215.24C82.2128 209.768 81.6123 207.938 81.6123 203.686C81.6123 199.435 79.1815 194.869 77.0461 193.353C74.5287 191.553 72.189 189.516 70.0587 187.271C68.5736 185.758 66.7558 184.613 64.7501 183.926C62.7443 183.239 60.6059 183.03 58.5051 183.315C55.1904 183.928 51.7915 183.928 48.4768 183.315C43.9106 182.705 43.9106 181.494 39.6591 183.01C35.4075 184.526 27.1903 187.271 27.1903 187.271C27.1903 187.271 18.3726 190.913 16.8569 194.897C15.3412 198.882 16.2468 206.146 15.0362 209.196C13.8255 212.247 10.4701 211.017 11.9953 218.014C13.5205 225.011 15.9418 228.957 15.9418 232.313C15.9418 235.668 21.4135 241.741 26.2847 241.741C31.1559 241.741 34.4924 242.694 39.049 246.297C43.6056 249.901 47.2566 251.169 53.0334 248.128C58.8102 245.087 65.7976 245.354 68.8862 245.03C71.9748 244.705 75.8832 239.863 77.0938 235.602C78.3045 231.341 83.1756 231.045 84.7199 226.784C85.2061 225.421 85.7495 224.315 86.1689 223.247C86.458 222.015 86.6807 220.767 86.8362 219.511C86.6138 217.992 86.0746 216.537 85.2538 215.24ZM56.3793 214.935C54.2536 216.451 56.6844 220.712 53.6435 224.048C50.6026 227.385 50.6025 223.753 49.6874 223.753C48.3116 223.89 46.9224 223.793 45.5788 223.467C44.3308 223.351 43.1314 222.925 42.0899 222.227C40.2691 220.712 39.049 219.797 36.6181 219.492C34.1873 219.187 36.3131 216.756 37.8288 214.325C39.3445 211.894 39.6591 211.894 39.9641 209.158C40.2692 206.422 44.5207 206.117 44.5207 206.117C44.5207 206.117 46.3415 205.164 49.9925 206.117C53.6435 207.07 52.7283 208.853 55.7692 209.463C58.8102 210.073 58.5051 213.41 56.3793 214.935V214.935Z" stroke="black" stroke-width="3.79202" stroke-miterlimit="10"/>
<path opacity="0.3" d="M40.2882 220.836C39.1945 220.092 37.9336 219.63 36.6181 219.491C35.9222 219.406 35.6076 219.139 35.5409 218.757C33.7869 219.806 31.963 220.886 30.0692 221.999C25.1618 224.839 20.4255 227.964 15.8846 231.36C15.922 231.657 15.9411 231.956 15.9418 232.256C16.1594 234.041 16.9408 235.711 18.1724 237.022C19.059 236.355 20.0218 235.64 21.1085 234.877C24.7404 232.284 32.4905 226.431 40.2882 220.836Z" stroke="black" stroke-width="3.79202" stroke-miterlimit="10"/>
<path opacity="0.3" d="M25.7795 207.576C35.9127 199.778 42.1471 194.716 52.2803 190.417C57.0466 188.425 62.2229 186.508 66.7413 184.802C65.1321 183.934 63.3659 183.396 61.546 183.22C60.2782 183.649 58.9913 184.106 57.733 184.573C47.2471 188.472 38.2387 191.98 24.607 204.058C19.4022 208.662 15.0743 212.752 11.6616 216.06C11.7365 216.7 11.8447 217.337 11.9857 217.966C12.1001 218.481 12.2145 218.967 12.3385 219.453C16.4522 215.098 20.9508 211.122 25.7795 207.576V207.576Z" stroke="black" stroke-width="3.79202" stroke-miterlimit="10"/>
<path opacity="0.3" d="M53.2145 208.014C53.8619 208.791 54.77 209.306 55.7693 209.463C56.1275 209.53 56.4722 209.655 56.7893 209.835L57.3517 209.52C62.8902 206.518 72.6802 201.322 79.8964 197.023C79.3396 195.89 78.6095 194.852 77.7325 193.944C74.2054 195.679 70.4591 197.69 67.4849 199.387C63.567 201.627 58.9341 204.487 53.2145 208.014Z" stroke="black" stroke-width="3.79202" stroke-miterlimit="10"/>
<path opacity="0.3" d="M40.2024 240.311C46.8753 234.076 58.5146 232.122 72.9376 224.725C78.6572 221.77 83.1947 219.501 86.3881 217.766C86.0943 216.889 85.7144 216.042 85.2538 215.24L84.9201 214.63C75.7497 217.919 59.4393 225.335 48.7723 230.959C42.8203 234.207 37.2064 238.039 32.0139 242.398C33.4491 242.812 34.8216 243.418 36.0938 244.2L40.2024 240.311Z" stroke="black" stroke-width="3.79202" stroke-miterlimit="10"/>
</g>
<g opacity="0.3">
<path opacity="0.3" d="M273.181 10.6024C260.683 6.27456 243.334 11.0886 236.661 14.9302C236.661 14.9302 217.901 24.5487 215.975 43.3089C214.05 62.0692 228.005 79.8572 253.496 84.6712C278.986 89.4852 296.297 64.4715 296.297 46.674C296.297 28.8765 285.687 14.9302 273.181 10.6024ZM258.958 54.5479C252.571 55.158 248.014 51.202 249.235 45.7302C249.601 44.2213 250.37 42.84 251.459 41.7337C252.549 40.6274 253.918 39.8375 255.421 39.4482C257.045 38.9227 258.806 39.0223 260.359 39.7277C261.913 40.4331 263.147 41.6933 263.82 43.2613C265.345 46.6454 265.345 53.9379 258.958 54.5479Z" stroke="black" stroke-width="3.79202" stroke-miterlimit="10"/>
<path opacity="0.3" d="M294.524 46.0354C291.483 40.5637 290.873 38.7429 290.873 34.4818C290.873 30.2207 288.442 25.6736 286.317 24.1484C283.795 22.3535 281.455 20.3166 279.329 18.0666C277.842 16.5565 276.024 15.4136 274.019 14.7286C272.013 14.0436 269.876 13.8352 267.776 14.1201C264.458 14.7326 261.056 14.7326 257.738 14.1201C253.181 13.51 253.181 12.2898 248.93 13.815C244.678 15.3402 236.461 18.0666 236.461 18.0666C236.461 18.0666 227.643 21.7176 226.127 25.6927C224.612 29.6678 225.517 36.9412 224.307 39.9917C223.096 43.0421 219.741 41.822 221.266 48.8094C222.791 55.7968 225.212 59.7529 225.212 63.1084C225.212 66.4639 230.684 72.5362 235.546 72.5362C240.407 72.5362 243.763 73.4895 248.319 77.0928C252.876 80.6962 256.527 81.9545 262.304 78.9135C268.081 75.8726 275.068 76.1777 278.109 75.8822C281.15 75.5867 285.106 70.7059 286.317 66.4544C287.527 62.2028 292.398 61.8977 293.943 57.6366C294.429 56.2735 294.982 55.1582 295.401 54.1C295.69 52.8673 295.913 51.6199 296.069 50.3632C295.864 48.8279 295.338 47.3531 294.524 46.0354ZM265.65 45.7304C263.514 47.2556 265.945 51.5071 262.914 54.8531C259.883 58.1991 259.873 54.5481 258.958 54.5481C257.579 54.6927 256.186 54.5992 254.84 54.2716C253.597 54.1454 252.403 53.7202 251.36 53.0324C249.53 51.5071 248.319 50.6015 245.889 50.2965C243.458 49.9915 245.584 47.5606 247.147 45.1679C248.71 42.7752 248.977 42.7276 249.282 39.9917C249.587 37.2558 253.82 36.9222 253.82 36.9222C253.82 36.9222 255.641 35.9689 259.292 36.9222C262.943 37.8754 262.027 39.658 265.068 40.2586C268.109 40.8592 267.776 44.2147 265.65 45.7304V45.7304Z" stroke="black" stroke-width="3.79202" stroke-miterlimit="10"/>
<path opacity="0.3" d="M249.549 51.6406C248.464 50.8871 247.204 50.4243 245.889 50.2965C245.193 50.2107 244.878 49.9437 244.811 49.5624L239.34 52.794C234.433 55.6379 229.696 58.7668 225.155 62.1646C225.193 62.4618 225.212 62.7611 225.212 63.0607C225.43 64.8463 226.211 66.516 227.443 67.827C228.329 67.1502 229.292 66.4352 230.379 65.6726C234.011 63.0893 241.761 57.2362 249.549 51.6406Z" stroke="black" stroke-width="3.79202" stroke-miterlimit="10"/>
<path opacity="0.3" d="M235.05 38.3806C245.183 30.5829 251.418 25.5115 261.551 21.2218C266.269 19.22 271.493 17.3134 276.012 15.5976C274.401 14.7338 272.635 14.1961 270.817 14.0151C269.549 14.4536 268.262 14.9112 267.003 15.3688C256.518 19.2676 247.519 22.7757 233.877 34.8631C228.682 39.4673 224.345 43.5568 220.942 46.8647C221.016 47.5054 221.124 48.1418 221.266 48.7712C221.371 49.286 221.495 49.7817 221.609 50.2678C225.721 45.9071 230.219 41.9283 235.05 38.3806V38.3806Z" stroke="black" stroke-width="3.79202" stroke-miterlimit="10"/>
<path opacity="0.3" d="M262.485 38.8191C263.132 39.5947 264.041 40.1067 265.04 40.2585C265.397 40.3295 265.741 40.4549 266.06 40.6303L266.622 40.3253C272.161 37.3225 281.951 32.1272 289.167 27.828C288.607 26.6941 287.878 25.6525 287.003 24.7394C283.476 26.4839 279.73 28.4952 276.746 30.1921C272.885 32.4322 268.205 35.292 262.485 38.8191Z" stroke="black" stroke-width="3.79202" stroke-miterlimit="10"/>
<path opacity="0.3" d="M249.473 71.1157C256.098 64.8718 267.785 62.9272 282.208 55.5203C287.928 52.5747 292.465 50.3059 295.659 48.5615C295.361 47.6854 294.981 46.8396 294.524 46.0353L294.191 45.4348C285.02 48.7235 268.7 56.1495 258.043 61.7547C252.089 64.9997 246.475 68.8319 241.284 73.1939C242.715 73.6148 244.084 74.2239 245.355 75.0051C246.651 73.7785 248.024 72.4821 249.473 71.1157Z" stroke="black" stroke-width="3.79202" stroke-miterlimit="10"/>
</g>
<g opacity="0.3">
<path opacity="0.3" d="M102.193 156.509C102.193 157.022 102.041 157.523 101.756 157.95C101.471 158.376 101.066 158.708 100.593 158.905C100.119 159.101 99.5976 159.152 99.0946 159.052C98.5916 158.952 98.1296 158.705 97.767 158.343C97.4044 157.98 97.1574 157.518 97.0574 157.015C96.9573 156.512 97.0087 155.991 97.2049 155.517C97.4012 155.043 97.7335 154.638 98.1599 154.353C98.5863 154.068 99.0876 153.916 99.6004 153.916C100.288 153.916 100.948 154.189 101.434 154.676C101.92 155.162 102.193 155.821 102.193 156.509Z" stroke="black" stroke-width="3.79202" stroke-linecap="round" stroke-linejoin="round"/>
<path opacity="0.3" d="M33.0529 139.007C33.0529 139.561 32.8891 140.103 32.5821 140.565C32.2752 141.026 31.8388 141.386 31.3277 141.6C30.8166 141.815 30.2536 141.873 29.7095 141.768C29.1653 141.664 28.6642 141.4 28.2691 141.012C27.874 140.623 27.6025 140.127 27.4886 139.584C27.3748 139.042 27.4237 138.478 27.6293 137.964C27.8349 137.449 28.1879 137.007 28.644 136.692C29.1001 136.377 29.6391 136.204 30.1931 136.195C30.5664 136.189 30.9372 136.257 31.2839 136.395C31.6306 136.534 31.9463 136.74 32.2125 137.002C32.4787 137.263 32.6901 137.576 32.8344 137.92C32.9787 138.264 33.053 138.634 33.0529 139.007V139.007Z" stroke="black" stroke-width="3.79202" stroke-linecap="round" stroke-linejoin="round"/>
<path opacity="0.3" d="M100.249 195.831C101.323 195.831 102.193 194.961 102.193 193.887C102.193 192.813 101.323 191.942 100.249 191.942C99.1746 191.942 98.304 192.813 98.304 193.887C98.304 194.961 99.1746 195.831 100.249 195.831Z" stroke="black" stroke-width="3.79202" stroke-linecap="round" stroke-linejoin="round"/>
<path opacity="0.3" d="M40.8316 281.168C40.8335 281.896 40.619 282.609 40.2154 283.216C39.8118 283.822 39.2373 284.295 38.5645 284.575C37.8918 284.855 37.1511 284.928 36.4365 284.787C35.7218 284.645 35.0653 284.294 34.5501 283.779C34.0349 283.264 33.6843 282.607 33.5426 281.893C33.4009 281.178 33.4746 280.438 33.7543 279.765C34.034 279.092 34.5071 278.517 35.1137 278.114C35.7202 277.71 36.4329 277.496 37.1615 277.498C38.1349 277.498 39.0684 277.884 39.7566 278.573C40.4449 279.261 40.8316 280.194 40.8316 281.168V281.168Z" stroke="black" stroke-width="3.79202" stroke-linecap="round" stroke-linejoin="round"/>
<path opacity="0.3" d="M99.6004 257.184C101.032 257.184 102.193 256.023 102.193 254.591C102.193 253.159 101.032 251.998 99.6004 251.998C98.1684 251.998 97.0076 253.159 97.0076 254.591C97.0076 256.023 98.1684 257.184 99.6004 257.184Z" stroke="black" stroke-width="3.79202" stroke-linecap="round" stroke-linejoin="round"/>
<path opacity="0.3" d="M333.36 194.535C333.36 195.048 333.208 195.549 332.923 195.975C332.638 196.402 332.233 196.734 331.76 196.93C331.286 197.127 330.765 197.178 330.262 197.078C329.759 196.978 329.297 196.731 328.934 196.368C328.571 196.006 328.324 195.544 328.224 195.041C328.124 194.538 328.176 194.016 328.372 193.543C328.568 193.069 328.901 192.664 329.327 192.379C329.753 192.094 330.255 191.942 330.767 191.942C331.455 191.942 332.115 192.215 332.601 192.701C333.087 193.188 333.36 193.847 333.36 194.535V194.535Z" stroke="black" stroke-width="3.79202" stroke-linecap="round" stroke-linejoin="round"/>
<path opacity="0.3" d="M305.706 138.14C305.708 138.953 305.468 139.749 305.018 140.426C304.567 141.103 303.925 141.631 303.174 141.943C302.423 142.255 301.596 142.338 300.798 142.179C300 142.021 299.267 141.63 298.692 141.054C298.117 140.479 297.726 139.746 297.567 138.948C297.409 138.151 297.491 137.324 297.803 136.573C298.116 135.821 298.644 135.18 299.321 134.729C299.998 134.278 300.794 134.039 301.607 134.041C302.694 134.041 303.737 134.473 304.505 135.241C305.274 136.01 305.706 137.053 305.706 138.14V138.14Z" stroke="black" stroke-width="3.79202" stroke-linecap="round" stroke-linejoin="round"/>
<path opacity="0.3" d="M322.131 76.1298C323.8 76.1298 325.153 74.7768 325.153 73.1079C325.153 71.439 323.8 70.0861 322.131 70.0861C320.462 70.0861 319.109 71.439 319.109 73.1079C319.109 74.7768 320.462 76.1298 322.131 76.1298Z" stroke="black" stroke-width="3.79202" stroke-linecap="round" stroke-linejoin="round"/>
<path opacity="0.3" d="M377.439 73.9755C379.35 73.9755 380.9 72.4263 380.9 70.5152C380.9 68.6041 379.35 67.0548 377.439 67.0548C375.528 67.0548 373.979 68.6041 373.979 70.5152C373.979 72.4263 375.528 73.9755 377.439 73.9755Z" stroke="black" stroke-width="3.79202" stroke-linecap="round" stroke-linejoin="round"/>
<path opacity="0.3" d="M342.874 35.9497C342.874 36.3777 342.747 36.796 342.509 37.1519C342.271 37.5077 341.933 37.7851 341.538 37.9489C341.143 38.1127 340.708 38.1555 340.288 38.072C339.868 37.9885 339.482 37.7824 339.18 37.4798C338.877 37.1772 338.671 36.7916 338.588 36.3718C338.504 35.9521 338.547 35.517 338.711 35.1216C338.875 34.7262 339.152 34.3882 339.508 34.1505C339.864 33.9127 340.282 33.7858 340.71 33.7858C341.284 33.7858 341.834 34.0138 342.24 34.4196C342.646 34.8254 342.874 35.3758 342.874 35.9497V35.9497Z" stroke="black" stroke-width="3.79202" stroke-linecap="round" stroke-linejoin="round"/>
<path opacity="0.3" d="M155.338 21.6888C157.007 21.6888 158.36 20.3359 158.36 18.6669C158.36 16.998 157.007 15.6451 155.338 15.6451C153.669 15.6451 152.316 16.998 152.316 18.6669C152.316 20.3359 153.669 21.6888 155.338 21.6888Z" stroke="black" stroke-width="3.79202" stroke-linecap="round" stroke-linejoin="round"/>
<path opacity="0.3" d="M66.0264 31.5552C67.4584 31.5552 68.6193 30.3943 68.6193 28.9623C68.6193 27.5303 67.4584 26.3694 66.0264 26.3694C64.5944 26.3694 63.4335 27.5303 63.4335 28.9623C63.4335 30.3943 64.5944 31.5552 66.0264 31.5552Z" stroke="black" stroke-width="3.79202" stroke-linecap="round" stroke-linejoin="round"/>
<path opacity="0.3" d="M370.957 338.202C370.959 339.1 370.695 339.978 370.197 340.725C369.7 341.473 368.992 342.056 368.163 342.401C367.334 342.746 366.421 342.837 365.54 342.663C364.659 342.489 363.85 342.057 363.214 341.423C362.579 340.789 362.146 339.98 361.97 339.1C361.794 338.22 361.883 337.307 362.227 336.477C362.57 335.647 363.151 334.938 363.898 334.439C364.644 333.94 365.522 333.674 366.42 333.674C367.621 333.674 368.774 334.15 369.625 334.999C370.475 335.848 370.955 337 370.957 338.202V338.202Z" stroke="black" stroke-width="3.79202" stroke-linecap="round" stroke-linejoin="round"/>
<path opacity="0.3" d="M323.647 331.51C324.721 331.51 325.591 330.639 325.591 329.565C325.591 328.491 324.721 327.62 323.647 327.62C322.573 327.62 321.702 328.491 321.702 329.565C321.702 330.639 322.573 331.51 323.647 331.51Z" stroke="black" stroke-width="3.79202" stroke-linecap="round" stroke-linejoin="round"/>
<path opacity="0.3" d="M28.849 350.213C29.923 350.213 30.7937 349.342 30.7937 348.268C30.7937 347.194 29.923 346.324 28.849 346.324C27.775 346.324 26.9044 347.194 26.9044 348.268C26.9044 349.342 27.775 350.213 28.849 350.213Z" stroke="black" stroke-width="3.79202" stroke-linecap="round" stroke-linejoin="round"/>
<path opacity="0.3" d="M389.536 225.64C389.536 226.153 389.384 226.654 389.099 227.081C388.814 227.507 388.409 227.839 387.936 228.036C387.462 228.232 386.94 228.283 386.437 228.183C385.935 228.083 385.473 227.836 385.11 227.473C384.747 227.111 384.5 226.649 384.4 226.146C384.3 225.643 384.352 225.122 384.548 224.648C384.744 224.174 385.076 223.769 385.503 223.484C385.929 223.199 386.431 223.047 386.943 223.047C387.631 223.047 388.291 223.32 388.777 223.807C389.263 224.293 389.536 224.952 389.536 225.64V225.64Z" stroke="black" stroke-width="3.79202" stroke-linecap="round" stroke-linejoin="round"/>
<path opacity="0.3" d="M287.994 171.638C289.905 171.638 291.455 170.088 291.455 168.177C291.455 166.266 289.905 164.717 287.994 164.717C286.083 164.717 284.534 166.266 284.534 168.177C284.534 170.088 286.083 171.638 287.994 171.638Z" stroke="black" stroke-width="3.79202" stroke-linecap="round" stroke-linejoin="round"/>
</g>
<path d="M4.0641 373.978H389.184" stroke="#263238" stroke-width="0.632003" stroke-linecap="round" stroke-linejoin="round"/>
<path d="M190.904 54.6336C190.904 54.6336 179.017 45.5681 170.886 49.934C162.754 54.3 169.322 60.2484 169.322 60.2484C169.322 60.2484 163.078 60.868 164.013 62.7459C164.529 63.7452 164.948 64.7924 165.261 65.8727C165.261 65.8727 149.637 68.7325 150.267 73.0603C150.896 77.3881 151.83 77.7408 151.83 77.7408C151.83 77.7408 143.393 80.2479 144.642 83.6797C145.891 87.1114 152.135 88.0551 152.135 88.0551C152.135 88.0551 138.074 96.4916 135.929 106.806C133.785 117.12 139.361 114.928 139.361 114.928C139.361 114.928 130.62 122.43 134.366 126.491C138.112 130.552 142.173 129.351 142.173 129.351C142.173 129.351 137.178 140.599 139.361 143.097C141.544 145.594 143.737 145.289 143.737 145.289C143.737 145.289 127.531 155.289 134.366 162.448C141.201 169.607 146.863 162.448 146.863 162.448C146.863 162.448 141.239 174.631 147.493 176.194C153.746 177.757 154.985 176.814 154.985 176.814C154.985 176.814 148.112 183.696 160.304 185.565C172.497 187.433 173.421 185.565 173.421 185.565C173.421 185.565 170.304 191.189 175.614 193.696C180.924 196.203 184.67 189.94 184.67 189.94C184.67 189.94 186.233 193.382 193.421 193.067C200.609 192.752 202.172 189.321 202.172 189.321C202.172 189.321 206.233 197.128 211.237 194.316C216.242 191.504 217.167 189.006 217.167 189.006C218.188 189.987 219.437 190.699 220.801 191.08C222.165 191.461 223.602 191.499 224.984 191.189L229.979 190.236C229.979 190.236 235.603 193.677 240.293 191.485C244.983 189.292 244.049 185.86 244.049 185.86C244.049 185.86 249.359 189.302 253.105 187.424C256.851 185.546 256.851 183.363 256.851 183.363C256.851 183.363 261.856 185.546 264.039 181.799C264.681 180.779 265.047 179.609 265.102 178.404C265.157 177.2 264.899 176.001 264.353 174.926C264.353 174.926 270.292 175.241 270.607 173.678C270.921 172.114 267.166 168.358 267.166 168.358C267.166 168.358 274.982 175.546 274.039 164.927C273.538 158.697 271.262 152.743 267.48 147.768C267.48 147.768 272.17 149.674 272.475 146.814C272.717 145.327 272.501 143.801 271.856 142.439C271.856 142.439 277.794 143.688 279.977 135.251C280.617 132.893 280.509 130.394 279.669 128.1C278.829 125.805 277.298 123.827 275.287 122.439C275.287 122.439 282.475 118.379 281.541 115.252C280.607 112.125 279.358 111.191 279.358 111.191C279.358 111.191 284.038 108.064 280.607 105.881C278.057 104.386 275.324 103.229 272.475 102.44C272.475 102.44 281.226 102.125 278.414 93.3744C275.602 84.6234 266.231 77.4453 264.039 76.5016C261.846 75.5578 272.79 73.0698 265.288 71.1919C257.785 69.3139 255.602 69.2853 255.602 69.2853C255.602 69.2853 262.17 63.6611 256.851 61.1635C251.532 58.666 249.053 59.9433 249.053 59.9433C249.053 59.9433 250.96 55.2533 244.993 54.9387C239.025 54.6241 235.612 57.1312 235.612 57.1312C235.612 57.1312 238.12 45.8827 232.8 43.3851C227.481 40.8875 218.702 51.8406 218.702 51.8406C218.702 51.8406 214.326 42.4604 211.514 45.2726C208.702 48.0847 208.702 50.2772 208.702 50.2772C208.702 50.2772 197.453 39.0287 193.392 44.9675C189.331 50.9064 190.904 54.6336 190.904 54.6336Z" fill="#263238" stroke="#263238" stroke-width="0.632003" stroke-linecap="round" stroke-linejoin="round"/>
<path d="M288.776 272.684C288.776 272.684 298.633 306.763 301.169 312.721C303.704 318.679 302.751 324.475 291.636 327.649C280.521 330.823 273.2 323.521 270.979 314.303C268.757 305.085 258.272 276.811 258.272 276.811L288.776 272.684Z" fill="#C2C2C2" stroke="#263238" stroke-width="0.632003" stroke-linecap="round" stroke-linejoin="round"/>
<path d="M288.776 272.684L258.272 276.811C258.272 276.811 259.73 280.748 261.675 286.172L291.95 283.589C290.13 277.383 288.776 272.684 288.776 272.684Z" fill="#263238" stroke="#263238" stroke-width="0.632003" stroke-linecap="round" stroke-linejoin="round"/>
<path d="M127.35 272.684C127.35 272.684 109.076 321.777 110.592 327.735C112.107 333.693 122.908 340.68 134.976 338.135C147.044 335.59 150.867 314.627 151.506 312.721C152.144 310.814 161.668 275.858 161.668 275.858L127.35 272.684Z" fill="#C2C2C2" stroke="#263238" stroke-width="0.632003" stroke-linecap="round" stroke-linejoin="round"/>
<path d="M161.668 275.858L127.35 272.684C127.35 272.684 125.367 278.003 122.765 285.362L156.081 296.296C158.779 286.458 161.668 275.858 161.668 275.858Z" fill="#263238" stroke="#263238" stroke-width="0.632003" stroke-linecap="round" stroke-linejoin="round"/>
<path d="M190.904 160.875C190.904 160.875 191.219 183.058 188.998 189.931C186.777 196.804 179.332 199.597 179.332 199.597C179.332 199.597 148.084 192.724 141.84 197.69C135.596 202.657 130.277 226.126 129.333 229.873C128.389 233.619 112.46 277.993 112.46 277.993C112.46 277.993 125.586 281.12 134.957 283.618C144.328 286.115 155.929 287.993 155.929 287.993L159.99 325.8L144.051 373.921H273.695L253.067 320.176L257.442 282.045L301.483 275.553C301.483 275.553 282.418 226.489 277.108 214.62C271.798 202.752 267.166 194.935 257.766 195.24C248.367 195.546 240.608 199.311 236.518 200.56C234.411 201.298 232.18 201.622 229.95 201.513C227.981 199.738 226.408 197.569 225.332 195.147C224.256 192.725 223.702 190.103 223.706 187.452C223.706 178.387 223.392 170.294 223.392 170.294C217.628 171.749 211.581 171.644 205.871 169.989C200.161 168.334 194.996 165.188 190.904 160.875Z" fill="#407BFF" stroke="#263238" stroke-width="0.632003" stroke-linecap="round" stroke-linejoin="round"/>
<path d="M247.147 265.372C247.147 265.372 256.68 245.354 267.642 232.961" stroke="#263238" stroke-width="0.632003" stroke-linecap="round" stroke-linejoin="round"/>
<path d="M255.726 243.447C255.726 243.447 261.923 232.484 264.782 228.671" stroke="#263238" stroke-width="0.632003" stroke-linecap="round" stroke-linejoin="round"/>
<path d="M149.437 235.821C149.437 235.821 162.306 258.699 163.736 265.849" stroke="#263238" stroke-width="0.632003" stroke-linecap="round" stroke-linejoin="round"/>
<path d="M153.25 253.933C153.25 253.933 160.876 266.802 163.26 273.475" stroke="#263238" stroke-width="0.632003" stroke-linecap="round" stroke-linejoin="round"/>
<path d="M238.253 306.734C231.084 314.151 220.236 325.094 213.354 330.68" stroke="#263238" stroke-width="0.632003" stroke-linecap="round" stroke-linejoin="round"/>
<path d="M245.526 299.099C245.526 299.099 244.077 300.643 241.713 303.093" stroke="#263238" stroke-width="0.632003" stroke-linecap="round" stroke-linejoin="round"/>
<path d="M198.168 334.579L194.879 336.638" stroke="#263238" stroke-width="0.632003" stroke-linecap="round" stroke-linejoin="round"/>
<path d="M221.99 316.972C215.549 322.576 208.723 327.72 201.562 332.368" stroke="#263238" stroke-width="0.632003" stroke-linecap="round" stroke-linejoin="round"/>
<path d="M211.876 237.728C233.925 235.097 260.493 219.291 274.858 209.749C270.378 200.665 265.783 194.974 257.766 195.24C248.386 195.555 240.608 199.311 236.518 200.56C234.411 201.298 232.18 201.622 229.95 201.513C227.981 199.738 226.408 197.569 225.332 195.147C224.256 192.725 223.702 190.103 223.706 187.452C223.706 178.387 223.392 170.294 223.392 170.294C217.628 171.749 211.581 171.644 205.871 169.989C200.161 168.334 194.996 165.188 190.904 160.875C190.904 160.875 191.219 183.058 188.998 189.931C186.777 196.804 179.332 199.597 179.332 199.597C179.332 199.597 148.084 192.724 141.84 197.69C139.866 199.263 138.027 202.666 136.32 206.699C150.867 217.166 186.901 240.711 211.876 237.728Z" fill="#C2C2C2" stroke="#263238" stroke-width="0.632003" stroke-linecap="round" stroke-linejoin="round"/>
<path d="M189.646 165.422C189.646 165.422 204.793 184.488 210.208 185.26C215.622 186.032 224.993 172.629 224.993 172.629C224.993 172.629 203.716 178.406 189.646 165.422Z" fill="#263238" stroke="#263238" stroke-width="0.632003" stroke-linecap="round" stroke-linejoin="round"/>
<path d="M174.642 150.246C174.642 150.246 175.271 153.688 177.501 154.936C179.732 156.185 183.431 154.936 183.431 154.936C183.431 154.936 188.75 165.87 196.243 171.142C203.735 176.413 208.74 180.837 216.871 178.644C225.003 176.452 232.181 165.518 235.937 159.893C238.752 155.605 240.764 150.841 241.875 145.833C242.505 143.02 242.505 128.026 240.922 118.645C239.34 109.265 230.293 96.7775 224.669 92.4021C219.045 88.0266 213.42 86.1486 204.05 91.4488C194.679 96.749 186.233 105.509 180.924 119.885C175.614 134.26 174.642 141.81 174.642 150.246Z" fill="#C2C2C2" stroke="#263238" stroke-width="0.632003" stroke-linecap="round" stroke-linejoin="round"/>
<path d="M205.585 127.434C205.585 127.434 200.894 123.374 194.956 127.749" stroke="#263238" stroke-width="1.26401" stroke-linecap="round" stroke-linejoin="round"/>
<path d="M222.143 125.566C222.143 125.566 228.082 122.439 231.828 125.871" stroke="#263238" stroke-width="1.26401" stroke-linecap="round" stroke-linejoin="round"/>
<path d="M206.833 113.059C206.833 113.059 198.702 109.037 191.857 118.379" stroke="#263238" stroke-width="1.26401" stroke-linecap="round" stroke-linejoin="round"/>
<path d="M220.265 112.44C220.265 112.44 228.082 107.435 232.143 115.871" stroke="#263238" stroke-width="1.26401" stroke-linecap="round" stroke-linejoin="round"/>
<path d="M222.143 129.942C222.143 129.942 222.762 134.003 217.453 136.185" stroke="#263238" stroke-width="0.632003" stroke-linecap="round" stroke-linejoin="round"/>
<path d="M203.392 137.434C203.392 137.434 203.392 145.556 199.331 148.997" stroke="#263238" stroke-width="0.632003" stroke-linecap="round" stroke-linejoin="round"/>
<path d="M203.392 142.401C206.801 144.136 210.514 145.195 214.326 145.518C220.894 146.147 224.326 143.964 226.518 141.152" stroke="#263238" stroke-width="0.632003" stroke-linecap="round" stroke-linejoin="round"/>
<path d="M218.396 92.7549C218.396 92.7549 229.016 94.9378 234.602 111.191C238.668 123.072 240.88 135.509 241.16 148.063C241.16 148.063 249.292 144.307 247.414 126.815C245.536 109.323 241.16 99.9425 234.287 94.0036C227.414 88.0648 221.17 86.5014 219.293 87.1306C217.415 87.7598 212.772 87.7502 218.396 92.7549Z" fill="white" stroke="#263238" stroke-width="0.632003" stroke-linecap="round" stroke-linejoin="round"/>
<path d="M220.265 93.0694C220.265 93.0694 211.047 91.8492 203.707 96.1866C193.44 102.259 185.471 115.118 181.724 126.052C177.978 136.986 174.642 150.246 174.642 150.246C174.642 150.246 173.088 144.937 172.459 133.088C171.829 121.238 178.521 105.653 187.587 97.5212C196.652 89.3898 206.833 84.6616 213.392 84.6616C219.95 84.6616 225.269 88.6939 220.265 93.0694Z" fill="white" stroke="#263238" stroke-width="0.632003" stroke-linecap="round" stroke-linejoin="round"/>
<path d="M174.422 148.225C174.422 148.225 180.447 107.454 192.534 93.9749" stroke="#263238" stroke-width="0.632003" stroke-linecap="round" stroke-linejoin="round"/>
<path d="M238.568 99.6469C238.568 99.6469 245.908 126.615 241.17 148.063" stroke="#263238" stroke-width="0.632003" stroke-linecap="round" stroke-linejoin="round"/>
<path d="M230.131 191.017C229.678 191.712 229.088 192.305 228.396 192.762C224.955 194.954 224.955 191.198 224.955 191.198C224.543 192.395 223.792 193.446 222.793 194.223C221.795 194.999 220.592 195.469 219.331 195.574C214.955 195.889 215.584 192.762 215.584 192.762C215.28 193.936 214.59 194.974 213.626 195.71C212.661 196.447 211.478 196.838 210.265 196.823C205.89 196.823 207.453 194.64 207.453 194.64C207.453 194.64 202.772 195.889 200.58 193.076C200.129 192.551 199.807 191.927 199.641 191.255C199.476 190.583 199.471 189.881 199.627 189.206C199.036 190.007 197.92 190.665 195.871 189.635C193.011 188.215 193.964 184.64 194.574 182.962C189.871 185.66 186.091 189.715 183.73 194.596C181.369 199.477 180.537 204.958 181.342 210.32C182.147 215.682 184.551 220.676 188.242 224.649C191.932 228.622 196.735 231.388 202.023 232.586C207.311 233.784 212.838 233.358 217.88 231.363C222.922 229.369 227.244 225.898 230.282 221.407C233.319 216.915 234.929 211.611 234.903 206.189C234.876 200.767 233.213 195.479 230.131 191.017ZM208.063 212.199C206.929 212.214 205.815 211.892 204.865 211.272C203.914 210.653 203.169 209.765 202.725 208.722C202.28 207.678 202.156 206.525 202.368 205.411C202.58 204.297 203.119 203.27 203.915 202.463C204.712 201.655 205.731 201.103 206.843 200.876C207.954 200.649 209.108 200.758 210.158 201.188C211.207 201.619 212.105 202.352 212.737 203.294C213.369 204.236 213.706 205.345 213.706 206.479C213.707 207.983 213.114 209.427 212.058 210.497C211.002 211.567 209.567 212.179 208.063 212.199Z" fill="white" stroke="#263238" stroke-width="0.632003" stroke-linecap="round" stroke-linejoin="round"/>
<path d="M228.396 192.743C224.955 194.935 224.955 191.179 224.955 191.179C224.543 192.376 223.792 193.427 222.793 194.203C221.795 194.98 220.592 195.45 219.331 195.555C214.955 195.87 215.584 192.743 215.584 192.743C215.28 193.917 214.59 194.955 213.626 195.691C212.661 196.428 211.478 196.819 210.265 196.804C205.89 196.804 207.453 194.621 207.453 194.621C207.453 194.621 202.772 195.87 200.58 193.057C200.129 192.532 199.807 191.908 199.641 191.236C199.476 190.564 199.471 189.862 199.627 189.187C199.036 189.988 197.92 190.646 195.871 189.616C193.011 188.196 193.964 184.621 194.574 182.943C191.985 184.472 189.669 186.421 187.72 188.71C188.216 189.235 188.311 190.617 186.653 194.239C183.392 201.313 180.933 208.119 184.746 210.836C188.559 213.553 192.096 217.099 192.096 223.629C192.123 225.622 192.62 227.582 193.545 229.348C196.876 231.524 200.656 232.918 204.603 233.428C208.416 231.522 212.572 229.672 217.129 231.264C217.519 231.398 217.891 231.522 218.263 231.617C221.634 230.21 224.683 228.131 227.224 225.507C228.043 219.892 225.241 213.696 230.741 209.768C232.219 208.71 233.601 207.728 234.907 206.718V206.47C234.926 200.942 233.264 195.54 230.141 190.979C229.687 191.681 229.093 192.282 228.396 192.743ZM208.063 212.199C206.929 212.214 205.815 211.892 204.865 211.272C203.914 210.653 203.169 209.765 202.725 208.722C202.28 207.678 202.156 206.525 202.368 205.411C202.58 204.297 203.119 203.27 203.915 202.463C204.712 201.655 205.731 201.103 206.843 200.876C207.954 200.649 209.108 200.758 210.158 201.188C211.207 201.619 212.105 202.352 212.737 203.294C213.369 204.236 213.706 205.345 213.706 206.479C213.706 207.983 213.114 209.427 212.058 210.497C211.002 211.567 209.567 212.179 208.063 212.199Z" fill="#407BFF" stroke="#263238" stroke-width="0.632003" stroke-linecap="round" stroke-linejoin="round"/>
<path d="M224.269 226.546C224.13 226.382 223.956 226.252 223.759 226.166C223.562 226.08 223.349 226.04 223.134 226.05C223.401 225.097 223.773 223.905 224.087 222.799C224.659 220.979 225.308 218.92 225.899 216.689C226.232 215.459 226.728 213.591 225.336 212.876C223.944 212.161 222.667 213.457 220.007 216.451C218.32 218.357 214.45 222.694 212.963 222.59C212.744 221.36 214.955 217.061 216.433 214.191C218.635 209.892 220.913 205.459 221.047 202.256C221.104 200.95 220.684 200.15 219.798 199.873C218.253 199.387 217.205 200.712 213.706 206.241C213.706 206.336 213.706 206.432 213.706 206.518C213.708 207.653 213.372 208.764 212.74 209.708C212.109 210.652 211.211 211.386 210.16 211.818C206.786 217.032 202.467 223.162 200.16 223.362H199.836C199.666 223.364 199.496 223.345 199.331 223.305C198.75 222.17 201.8 216.803 203.44 213.915C203.954 212.962 204.46 212.113 204.927 211.255C204.151 210.727 203.518 210.015 203.082 209.184C202.647 208.353 202.423 207.427 202.429 206.489C202.429 206.27 202.429 206.05 202.429 205.831C201.667 206.422 200.751 207.166 199.646 208.09C197.662 209.844 195.542 211.438 193.306 212.857C194.685 210.412 196.187 208.038 197.806 205.745C199.771 202.985 201.56 200.104 203.163 197.118C203.583 196.434 203.755 195.626 203.649 194.83C202.847 194.708 202.083 194.402 201.419 193.934C200.332 194.535 198.711 196.394 195.251 200.369C193.478 202.39 191.028 205.193 189.532 206.689C190.385 204.348 191.398 202.067 192.563 199.864C194.393 196.16 196.69 192.707 199.398 189.588C199.482 189.491 199.55 189.382 199.598 189.263C198.997 190.055 197.892 190.674 195.871 189.664L195.699 189.559C193.498 192.371 191.582 195.395 189.98 198.586C186.043 206.451 185.833 208.519 186.815 209.749C187.094 210.081 187.468 210.322 187.886 210.439C188.304 210.557 188.748 210.545 189.16 210.407C190.113 210.169 191.448 208.939 194.489 205.545C190.59 211.36 189.341 213.677 190.304 215.249C190.543 215.608 190.885 215.886 191.284 216.048C191.684 216.209 192.123 216.247 192.544 216.155C194.641 215.869 197.568 213.562 201.466 210.34L202.696 209.33C202.153 210.34 201.543 211.417 200.914 212.533C197.425 218.681 195.413 222.58 196.881 224.925C197.329 225.64 198.302 226.45 200.361 226.279C204.412 225.936 209.216 218.757 215.079 209.415C215.68 208.462 216.328 207.423 216.986 206.451C216.137 208.51 214.955 210.807 213.859 212.952C210.999 218.557 209.398 221.837 210.36 223.943C210.527 224.313 210.778 224.639 211.092 224.895C211.406 225.151 211.776 225.331 212.172 225.421C214.984 226.126 218.206 222.818 222.114 218.414L222.6 217.871C222.171 219.358 221.733 220.731 221.333 222.037C219.826 226.851 219.264 228.652 220.703 229.596C220.983 229.791 221.316 229.895 221.657 229.892H221.952C222.817 229.353 223.653 228.771 224.459 228.147C224.59 227.891 224.641 227.603 224.607 227.317C224.573 227.032 224.455 226.764 224.269 226.546Z" fill="white" stroke="#263238" stroke-width="0.632003" stroke-linecap="round" stroke-linejoin="round"/>
<path d="M169.446 235.973C170.994 234.403 172.693 232.989 174.518 231.75C176.424 230.702 180.237 226.269 181.696 223.524C183.154 220.778 184.222 218.243 185.28 220.569C185.886 221.909 186.164 223.374 186.091 224.842C186.018 226.311 185.596 227.741 184.861 229.015C183.173 231.75 178.312 236.183 177.234 237.451C176.157 238.719 174.06 244 174.06 244C173.122 244.04 172.19 243.849 171.343 243.443C170.497 243.038 169.764 242.43 169.208 241.674C167.549 239.148 167.549 237.88 169.446 235.973Z" fill="#C2C2C2" stroke="#263238" stroke-width="0.632003" stroke-linecap="round" stroke-linejoin="round"/>
<path d="M181.829 215.554C181.829 215.554 168.398 221.179 166.834 223.991C165.271 226.803 159.027 238.366 158.712 241.807C158.398 245.249 164.022 246.803 169.017 260.873C169.837 263.17 167.111 264.934 166.205 266.497C165.3 268.06 139.333 291.492 129.333 299.623C119.333 307.754 110.592 320.595 110.592 327.744C110.592 334.894 118.399 344.617 126.216 345.246C134.032 345.875 141.84 340.556 147.464 329.927C153.088 319.298 176.205 280.872 179.332 276.544C182.458 272.217 184.956 269.042 185.27 264.362C185.456 261.343 185.456 258.315 185.27 255.296C185.27 255.296 197.453 238.423 197.453 236.545C197.453 234.667 201.209 230.301 200.58 228.738C199.951 227.175 198.397 228.109 196.834 229.358C195.27 230.607 178.083 243.113 178.083 243.113C178.083 243.113 184.956 231.55 186.834 229.987C188.712 228.424 194.641 223.114 193.707 221.865C192.773 220.616 191.524 220.912 189.646 222.485C187.768 224.058 180.58 228.738 178.712 231.236C176.844 233.733 169.646 238.681 169.646 238.681C169.646 238.681 170.895 230.549 172.773 227.432C174.651 224.315 183.393 220.864 184.641 218.367C185.89 215.869 184.022 214.306 181.829 215.554Z" fill="#C2C2C2" stroke="#263238" stroke-width="0.632003" stroke-linecap="round" stroke-linejoin="round"/>
<path d="M162.783 246.783C163.493 248.083 164.467 249.219 165.643 250.12C166.789 250.98 168.08 251.625 169.456 252.026C169.456 252.026 172.316 253.933 174.222 255.363C175.557 256.317 176.996 257.117 178.512 257.746" stroke="#263238" stroke-width="0.632003" stroke-linecap="round" stroke-linejoin="round"/>
<path d="M197.234 235.821C197.234 235.821 184.022 247.155 181.524 249.338L197.234 235.821Z" fill="white"/>
<path d="M197.234 235.821C197.234 235.821 184.022 247.155 181.524 249.338" stroke="#263238" stroke-width="0.632003" stroke-linecap="round" stroke-linejoin="round"/>
<path d="M254.354 226.212C254.354 226.212 248.11 220.492 244.993 218.319C241.875 216.146 235.813 212.99 234.154 213.724C232.495 214.458 233.201 215.564 234.345 216.479C235.488 217.394 238.158 219.053 241.504 221.245C244.85 223.438 254.172 227.489 254.172 227.489C254.172 227.489 256.012 228.195 254.354 226.212Z" fill="#C2C2C2" stroke="#263238" stroke-width="0.632003" stroke-linecap="round" stroke-linejoin="round"/>
<path d="M229.988 224.62C229.988 224.62 228.434 221.493 230.617 221.179C231.755 220.976 232.92 220.976 234.059 221.179C234.059 221.179 233.601 218.166 234.545 217.232C235.488 216.298 237.824 216.965 239.692 218.843C241.561 220.721 257.175 226.183 257.49 229.93C257.804 233.676 240.331 267.736 240.331 267.736C240.331 267.736 268.767 292.111 277.508 297.736C286.25 303.36 302.189 310.862 303.752 318.707C305.315 326.553 302.188 333.712 294.381 335.58C286.574 337.449 284.696 338.087 275.316 330.585C265.936 323.083 236.232 286.525 230.951 277.46C225.67 268.394 225.946 268.718 226.575 262.15C227.205 255.582 230.636 242.78 230.636 242.78C228.783 239.975 227.114 237.051 225.641 234.029C223.735 229.968 224.078 228.09 225.641 227.156C226.914 226.512 228.287 226.09 229.702 225.907L229.988 224.62Z" fill="#C2C2C2" stroke="#263238" stroke-width="0.632003" stroke-linecap="round" stroke-linejoin="round"/>
<path d="M229.645 260.863L235.574 244.925L227.128 226.183C227.128 226.183 227.443 224.277 229.941 224.62C232.438 224.963 242.6 236.45 244.163 238.013C245.727 239.577 244.945 245.554 242.752 250.549" fill="#C2C2C2"/>
<path d="M229.645 260.863L235.574 244.925L227.128 226.183C227.128 226.183 227.443 224.277 229.941 224.62C232.438 224.963 242.6 236.45 244.163 238.013C245.727 239.577 244.945 245.554 242.752 250.549" stroke="#263238" stroke-width="0.632003" stroke-linecap="round" stroke-linejoin="round"/>
<path d="M234.02 221.179L250.293 230.282C252.867 231.731 254.153 233.504 253.029 237.203" stroke="#263238" stroke-width="0.632003" stroke-linecap="round" stroke-linejoin="round"/>
<path d="M205.527 152.019C205.527 152.246 205.46 152.467 205.335 152.655C205.209 152.843 205.03 152.99 204.821 153.076C204.612 153.163 204.382 153.185 204.16 153.141C203.938 153.097 203.735 152.988 203.575 152.828C203.415 152.668 203.306 152.464 203.261 152.242C203.217 152.021 203.24 151.791 203.327 151.582C203.413 151.373 203.56 151.194 203.748 151.068C203.936 150.942 204.157 150.875 204.383 150.875C204.686 150.878 204.976 150.999 205.19 151.213C205.404 151.427 205.525 151.717 205.527 152.019Z" fill="#407BFF" stroke="#263238" stroke-width="0.632003" stroke-linecap="round" stroke-linejoin="round"/>
<path d="M198.54 153.859C198.856 153.859 199.112 153.603 199.112 153.287C199.112 152.971 198.856 152.715 198.54 152.715C198.224 152.715 197.968 152.971 197.968 153.287C197.968 153.603 198.224 153.859 198.54 153.859Z" fill="#407BFF" stroke="#263238" stroke-width="0.632003" stroke-linecap="round" stroke-linejoin="round"/>
<path d="M206.423 409.458C238.233 409.458 264.02 398.827 264.02 385.712C264.02 372.598 238.233 361.967 206.423 361.967C174.614 361.967 148.827 372.598 148.827 385.712C148.827 398.827 174.614 409.458 206.423 409.458Z" fill="#263238" stroke="#263238" stroke-width="0.632003" stroke-linecap="round" stroke-linejoin="round"/>
<path d="M206.423 406.189C242.155 406.189 271.122 395.557 271.122 382.443C271.122 369.328 242.155 358.697 206.423 358.697C170.692 358.697 141.725 369.328 141.725 382.443C141.725 395.557 170.692 406.189 206.423 406.189Z" fill="white" stroke="#263238" stroke-width="0.632003" stroke-linecap="round" stroke-linejoin="round"/>
<path d="M206.423 398C231.378 398 251.608 390.787 251.608 381.89C251.608 372.992 231.378 365.78 206.423 365.78C181.469 365.78 161.239 372.992 161.239 381.89C161.239 390.787 181.469 398 206.423 398Z" fill="white" stroke="#263238" stroke-width="0.632003" stroke-linecap="round" stroke-linejoin="round"/>
<path d="M245.801 367.092C247.221 358.74 238.131 350.229 225.498 348.081C212.865 345.933 201.473 350.962 200.053 359.313C198.633 367.664 207.723 376.175 220.356 378.323C232.989 380.471 244.381 375.443 245.801 367.092Z" fill="white" stroke="#263238" stroke-width="0.632003" stroke-linecap="round" stroke-linejoin="round"/>
<path d="M228.835 360.127C228.511 362.033 225.975 363.12 223.115 362.634C220.255 362.148 218.253 360.251 218.568 358.382C218.883 356.514 221.428 355.389 224.288 355.866C227.147 356.342 229.149 358.258 228.835 360.127Z" fill="white" stroke="#263238" stroke-width="0.632003" stroke-linecap="round" stroke-linejoin="round"/>
<path d="M186.548 391.118C199.578 391.118 210.141 384.6 210.141 376.561C210.141 368.522 199.578 362.005 186.548 362.005C173.518 362.005 162.954 368.522 162.954 376.561C162.954 384.6 173.518 391.118 186.548 391.118Z" fill="white" stroke="#263238" stroke-width="0.632003" stroke-linecap="round" stroke-linejoin="round"/>
<path d="M189.284 377.533C203.92 377.533 215.784 370.12 215.784 360.975C215.784 351.83 203.92 344.417 189.284 344.417C174.648 344.417 162.783 351.83 162.783 360.975C162.783 370.12 174.648 377.533 189.284 377.533Z" fill="#263238" stroke="#263238" stroke-width="0.632003" stroke-linecap="round" stroke-linejoin="round"/>
<path d="M173.03 359.936L176.758 359.66" stroke="white" stroke-width="0.632003" stroke-linecap="round" stroke-linejoin="round"/>
<path d="M171.238 355.789L173.717 357.172" stroke="white" stroke-width="0.632003" stroke-linecap="round" stroke-linejoin="round"/>
<path d="M178.55 353.454L176.062 354.417" stroke="white" stroke-width="0.632003" stroke-linecap="round" stroke-linejoin="round"/>
<path d="M172.201 350.966L175.509 351.109" stroke="white" stroke-width="0.632003" stroke-linecap="round" stroke-linejoin="round"/>
<path d="M186.681 349.317L185.442 350.413" stroke="white" stroke-width="0.632003" stroke-linecap="round" stroke-linejoin="round"/>
<path d="M179.646 349.45L182.964 351.242" stroke="white" stroke-width="0.632003" stroke-linecap="round" stroke-linejoin="round"/>
<path d="M193.03 349.317L194.822 350.832" stroke="white" stroke-width="0.632003" stroke-linecap="round" stroke-linejoin="round"/>
<path d="M201.161 351.795L197.72 352.625" stroke="white" stroke-width="0.632003" stroke-linecap="round" stroke-linejoin="round"/>
<path d="M204.469 356.066L207.234 356.485" stroke="white" stroke-width="0.632003" stroke-linecap="round" stroke-linejoin="round"/>
<path d="M204.612 351.109L208.33 353.311" stroke="white" stroke-width="0.632003" stroke-linecap="round" stroke-linejoin="round"/>
<path d="M200.608 347.382L197.72 347.515" stroke="white" stroke-width="0.632003" stroke-linecap="round" stroke-linejoin="round"/>
<path d="M186.405 346.276H189.713" stroke="white" stroke-width="0.632003" stroke-linecap="round" stroke-linejoin="round"/>
<path d="M213.849 358.83L210.265 359.793" stroke="white" stroke-width="0.632003" stroke-linecap="round" stroke-linejoin="round"/>
<path d="M211.228 354.417L212.334 356.895" stroke="white" stroke-width="0.632003" stroke-linecap="round" stroke-linejoin="round"/>
<path d="M207.51 360.899L204.889 363.244" stroke="white" stroke-width="0.632003" stroke-linecap="round" stroke-linejoin="round"/>
<path d="M191.648 363.244L197.72 364.073" stroke="white" stroke-width="0.632003" stroke-linecap="round" stroke-linejoin="round"/>
<path d="M199.093 360.07L202.124 359.383" stroke="white" stroke-width="0.632003" stroke-linecap="round" stroke-linejoin="round"/>
<path d="M179.37 360.203L183.65 362.415" stroke="white" stroke-width="0.632003" stroke-linecap="round" stroke-linejoin="round"/>
<path d="M189.026 365.589L184.613 366.275" stroke="white" stroke-width="0.632003" stroke-linecap="round" stroke-linejoin="round"/>
<path d="M194.403 367.381L195.785 369.03" stroke="white" stroke-width="0.632003" stroke-linecap="round" stroke-linejoin="round"/>
<path d="M203.926 365.312L201.028 366.962" stroke="white" stroke-width="0.632003" stroke-linecap="round" stroke-linejoin="round"/>
<path d="M165.995 358.134L166.682 359.936" stroke="white" stroke-width="0.632003" stroke-linecap="round" stroke-linejoin="round"/>
<path d="M211.504 363.52L212.477 364.617" stroke="white" stroke-width="0.632003" stroke-linecap="round" stroke-linejoin="round"/>
<path d="M194.412 357.286C194.412 358.697 192.124 359.841 189.293 359.841C186.462 359.841 184.184 358.697 184.184 357.286C184.184 355.875 186.471 354.731 189.293 354.731C192.115 354.731 194.412 355.875 194.412 357.286Z" fill="white" stroke="#263238" stroke-width="0.632003" stroke-linecap="round" stroke-linejoin="round"/>
<path d="M189.284 377.533C201.381 377.533 211.571 372.472 214.745 365.551C213.943 365.61 213.17 365.879 212.505 366.333C210.141 368.106 209.941 370.27 207.977 369.278C206.013 368.287 204.631 368.106 201.886 369.869C199.14 371.633 196.967 373.806 192.839 371.442C188.712 369.078 184.384 369.869 180.838 371.842C177.292 373.816 174.546 367.905 174.165 364.559C173.784 361.214 169.646 364.369 166.1 363.387C164.442 362.92 163.479 361.156 162.916 359.412C162.837 359.929 162.795 360.452 162.792 360.975C162.783 370.117 174.699 377.533 189.284 377.533Z" fill="white" stroke="#263238" stroke-width="0.632003" stroke-linecap="round" stroke-linejoin="round"/>
<path d="M222.534 397.209C236.654 397.209 248.1 389.813 248.1 380.689C248.1 371.565 236.654 364.169 222.534 364.169C208.414 364.169 196.967 371.565 196.967 380.689C196.967 389.813 208.414 397.209 222.534 397.209Z" fill="white" stroke="#263238" stroke-width="0.632003" stroke-linecap="round" stroke-linejoin="round"/>
<path d="M222.534 364.169C208.416 364.169 196.967 371.566 196.967 380.689C197.001 383.227 197.85 385.686 199.388 387.705C200.455 388.037 201.554 388.255 202.668 388.353C206.795 388.753 208.177 384.616 212.896 387.4C217.615 390.183 219.388 393.119 223.906 390.355C228.425 387.59 230.789 385.827 234.325 387.6C237.862 389.373 238.854 387.991 240.426 385.636C241.999 383.282 241.999 382.881 244.754 382.881C247.357 382.881 247.147 380.412 247.786 378.115C245.87 370.232 235.298 364.169 222.534 364.169Z" fill="#407BFF" stroke="#263238" stroke-width="0.632003" stroke-linecap="round" stroke-linejoin="round"/>
<path d="M196.967 380.717C196.967 381.108 196.967 381.499 197.034 381.88C201.972 373.644 209.55 368.077 214.774 364.979C213.744 365.189 212.753 365.436 211.781 365.732C205.924 369.493 200.891 374.403 196.986 380.164C196.977 380.317 196.967 380.498 196.967 380.717Z" fill="white" stroke="#263238" stroke-width="0.316001" stroke-linecap="round" stroke-linejoin="round"/>
<path d="M210.16 386.437C214.831 373.415 225.412 367.801 232.419 365.465C231.866 365.313 231.304 365.179 230.722 365.055C223.525 367.743 213.563 373.682 209.131 386.485C209.471 386.43 209.816 386.414 210.16 386.437Z" fill="white" stroke="#263238" stroke-width="0.316001" stroke-linecap="round" stroke-linejoin="round"/>
<path d="M224.497 364.226C223.849 364.226 223.191 364.169 222.534 364.169H221.895C209.417 369.259 202.572 379.002 198.902 386.98C199.055 387.222 199.217 387.46 199.388 387.695L199.588 387.753C203.344 379.421 210.656 368.973 224.497 364.226Z" fill="white" stroke="#263238" stroke-width="0.316001" stroke-linecap="round" stroke-linejoin="round"/>
<path d="M247.528 377.295C247.433 377.003 247.328 376.707 247.214 376.409C241.256 378.439 236.47 382.548 232.781 387.009C233.107 387.084 233.426 387.186 233.734 387.314C237.309 383.081 241.885 379.221 247.528 377.295Z" fill="white" stroke="#263238" stroke-width="0.316001" stroke-linecap="round" stroke-linejoin="round"/>
<path d="M240.998 369.278C240.646 369.04 240.283 368.821 239.912 368.592C229.292 371.547 221.075 378.363 215.365 388.963L216.156 389.507C221.895 378.811 230.207 372.033 240.998 369.278Z" fill="white" stroke="#263238" stroke-width="0.316001" stroke-linecap="round" stroke-linejoin="round"/>
<path d="M244.449 372.214C244.22 371.966 244.001 371.719 243.753 371.48C235.568 375.033 228.916 381.387 224.993 389.402C224.936 389.526 224.888 389.64 224.831 389.754L226.366 388.801C230.311 381.361 236.696 375.504 244.449 372.214Z" fill="white" stroke="#263238" stroke-width="0.316001" stroke-linecap="round" stroke-linejoin="round"/>
<path d="M227.843 375.579C227.843 376.656 225.422 377.543 222.429 377.543C219.435 377.543 217.024 376.656 217.024 375.579C217.024 374.502 219.445 373.606 222.429 373.606C225.412 373.606 227.843 374.492 227.843 375.579Z" fill="white" stroke="#263238" stroke-width="0.632003" stroke-linecap="round" stroke-linejoin="round"/>
</svg>
