<svg width="82" height="82" viewBox="0 0 82 82" fill="none" xmlns="http://www.w3.org/2000/svg">
<path d="M64.6255 47.1752C64.6272 46.671 64.5159 46.1728 64.2998 45.7172C64.0837 45.2617 63.7683 44.8603 63.3768 44.5427L43.1268 28.2414C42.5229 27.745 41.7654 27.4736 40.9836 27.4736C40.2019 27.4736 39.4444 27.745 38.8405 28.2414L18.5905 45.1164C17.9013 45.6893 17.4678 46.5125 17.3856 47.4049C17.3033 48.2974 17.5789 49.1859 18.1518 49.8752C18.7246 50.5644 19.5478 50.9978 20.4403 51.0801C21.3327 51.1624 22.2213 50.8868 22.9105 50.3139L41.0005 35.2277L59.0905 49.8077C59.5859 50.2204 60.1892 50.4825 60.8289 50.5631C61.4686 50.6437 62.118 50.5394 62.7003 50.2624C63.2826 49.9855 63.7734 49.5476 64.1145 49.0004C64.4557 48.4533 64.633 47.8199 64.6255 47.1752Z" fill="white"/>
</svg>
