<svg width="31" height="31" viewBox="0 0 31 31" fill="none" xmlns="http://www.w3.org/2000/svg">
<g clip-path="url(#clip0_2_2528)">
<path d="M15.4735 0.0272827C14.8559 0.0272827 14.2636 0.272634 13.8268 0.709363C13.3901 1.14609 13.1447 1.73842 13.1447 2.35605V13.9999C13.1447 14.6175 13.3901 15.2098 13.8268 15.6466C14.2636 16.0833 14.8559 16.3287 15.4735 16.3287C16.0911 16.3287 16.6835 16.0833 17.1202 15.6466C17.5569 15.2098 17.8023 14.6175 17.8023 13.9999V2.35605C17.8023 1.73842 17.5569 1.14609 17.1202 0.709363C16.6835 0.272634 16.0911 0.0272827 15.4735 0.0272827V0.0272827ZM7.14118 3.04769C6.80526 3.09013 6.48891 3.22929 6.23063 3.44824C4.45973 4.84433 3.02882 6.62418 2.04576 8.65364C1.06269 10.6831 0.553113 12.9092 0.555428 15.1643C0.555428 23.3825 7.25296 30.0835 15.4735 30.0835C23.6941 30.0835 30.3928 23.3825 30.3928 15.1643C30.3928 10.4217 28.1781 6.17872 24.7164 3.44708C24.3545 3.15756 23.8923 3.02368 23.4317 3.07489C22.9711 3.1261 22.5496 3.3582 22.2601 3.72012C21.9706 4.08205 21.8367 4.54417 21.8879 5.00481C21.9391 5.46545 22.1712 5.88688 22.5332 6.17639C23.8948 7.24539 24.9956 8.61007 25.752 10.1672C26.5085 11.7243 26.9009 13.4331 26.8996 15.1643C26.9033 16.6658 26.6103 18.1533 26.0374 19.5412C25.4644 20.9291 24.6229 22.1902 23.5612 23.252C22.4995 24.3137 21.2384 25.1552 19.8504 25.7281C18.4625 26.301 16.975 26.594 15.4735 26.5904C13.972 26.594 12.4845 26.301 11.0966 25.7281C9.70864 25.1552 8.44757 24.3137 7.38582 23.252C6.32408 22.1902 5.48258 20.9291 4.90967 19.5412C4.33676 18.1533 4.04373 16.6658 4.04741 15.1643C4.04741 11.5104 5.76022 8.27112 8.41385 6.17639C8.72221 5.94478 8.94524 5.61762 9.04815 5.24596C9.15106 4.87429 9.12807 4.47901 8.98276 4.12178C8.83745 3.76455 8.57799 3.46546 8.24486 3.27117C7.91173 3.07687 7.52366 2.99829 7.14118 3.04769Z" fill="white"/>
</g>
<defs>
<clipPath id="clip0_2_2528">
<rect width="30.274" height="30.274" fill="white" transform="translate(0.336426 0.0272827)"/>
</clipPath>
</defs>
</svg>
